<svg width="12" height="12" viewBox="0 0 12 12" fill="none" xmlns="http://www.w3.org/2000/svg">
    <path d="M4.97168 6.46678C5.40616 7.04763 6.07149 7.41113 6.795 7.46295C7.51852 7.51476 8.22886 7.24978 8.74168 6.73678L10.2417 5.23678C11.1891 4.25583 11.1756 2.69657 10.2112 1.73223C9.24689 0.767899 7.68763 0.75435 6.70668 1.70178L5.84668 2.55678" stroke="#8AB4F9" stroke-width="1.5" stroke-linecap="round" stroke-linejoin="round"/>
    <path d="M6.97178 5.46679C6.5373 4.88595 5.87197 4.52244 5.14846 4.47063C4.42494 4.41881 3.7146 4.68379 3.20178 5.19679L1.70178 6.69679C0.75435 7.67774 0.767899 9.23701 1.73223 10.2013C2.69657 11.1657 4.25583 11.1792 5.23678 10.2318L6.09178 9.37679" stroke="#8AB4F9" stroke-width="1.5" stroke-linecap="round" stroke-linejoin="round"/>
</svg>