<svg width="280" height="49" viewBox="0 0 280 49" fill="none" xmlns="http://www.w3.org/2000/svg">
    <path d="M23.7004 6.4283C28.6774 3.04675 35.2056 3.03818 40.1914 6.40663C40.8281 5.40453 41.5583 4.4653 42.3721 3.60157L42.6069 3.35388C36.203 -1.12815 27.6863 -1.11702 21.2942 3.38175L21.5567 3.6604C22.3553 4.51445 23.0729 5.44107 23.7004 6.4283Z" fill="#FFC774"/>
    <path fill-rule="evenodd" clip-rule="evenodd" d="M61.9766 2.39719C62.0234 2.41199 62.0688 2.43063 62.1125 2.45292C62.7164 2.69299 63.3035 2.9733 63.87 3.29196C63.3477 4.37977 62.7682 5.43908 62.1341 6.46546C58.1942 12.8189 52.2612 17.6813 45.2662 20.2895L45.2261 20.305C46.301 28.9833 40.9018 41.4203 33.1366 47.4825L31.9412 48.4113L30.7489 47.4825C22.9806 41.4234 17.5907 28.9895 18.6563 20.3205H18.6378C11.6334 17.7146 5.68987 12.8525 1.73899 6.49642C1.10253 5.47087 0.522016 4.41148 0 3.32292C0.561487 2.99719 1.14577 2.71264 1.74826 2.4715C1.79204 2.45024 1.8375 2.43264 1.88416 2.41886C2.47873 2.1813 3.08735 1.98071 3.70655 1.81822C4.95554 1.50091 6.2389 1.33972 7.52738 1.33833C14.384 1.33879 20.4032 5.91102 22.2578 12.5276C24.7835 9.8626 28.2911 8.35549 31.9582 8.35959C35.6253 8.36368 39.1295 9.87864 41.6493 12.5493C43.8943 4.52786 52.1097 -0.237173 60.1666 1.80893C60.7822 1.96479 61.3869 2.1613 61.9766 2.39719ZM19.2123 16.3606C19.1242 12.9867 17.5887 9.81475 14.9992 7.65741C12.4098 5.50007 9.01796 4.56691 5.69264 5.09698C9.09193 10.0154 13.7666 13.91 19.2123 16.3606ZM31.9474 43.4049L31.9443 43.4021C38.3025 37.5497 42.7764 26.2453 41.1798 19.5403L41.0655 19.1966V19.1285C39.8942 15.0638 36.1821 12.2656 31.9613 12.2656C27.7404 12.2656 24.0284 15.0638 22.8571 19.1285V19.1904L22.7335 19.5248C21.1091 26.2391 25.5707 37.5497 31.9443 43.4021L31.9412 43.4049H31.9474ZM44.7103 16.3299C44.7103 16.3308 44.7103 16.3318 44.7103 16.3327H44.7041C44.7062 16.3318 44.7082 16.3308 44.7103 16.3299ZM44.7103 16.3299C50.1287 13.8712 54.78 9.98466 58.1681 5.0846C57.5785 4.99227 56.9826 4.94671 56.3859 4.94837C50.0628 4.95091 44.889 9.99467 44.7103 16.3299Z" fill="#2A6CEB"/>
    <path d="M14.8015 24.1875C14.7574 23.3579 14.2751 22.6149 13.5362 22.2384C12.7974 21.862 11.9143 21.9092 11.2196 22.3623C10.525 22.8154 10.1242 23.6056 10.1683 24.4352C10.4062 28.875 11.2741 32.5005 12.9853 36.2003C13.3908 37.0776 14.2968 37.6106 15.2587 37.5378C15.5381 37.5187 15.8116 37.4473 16.0648 37.3273C16.625 37.0678 17.0587 36.595 17.2697 36.0138C17.4808 35.4325 17.4518 34.7909 17.1892 34.2312C15.7529 31.1042 15.0085 28.005 14.8015 24.1875Z" fill="#FFC774"/>
    <path d="M51.521 21.9769C50.2422 21.9101 49.1507 22.8934 49.0809 24.1751C48.877 27.9926 48.1388 31.0918 46.6902 34.2157C46.4286 34.7759 46.4005 35.4175 46.6121 35.9986C46.8236 36.5796 47.2575 37.0522 47.8176 37.3118C48.0708 37.4318 48.3443 37.5032 48.6237 37.5224C49.5856 37.5952 50.4916 37.0621 50.8971 36.1848C52.6083 32.4974 53.4762 28.8719 53.7141 24.4197C53.7738 23.1408 52.7961 22.0518 51.521 21.9769Z" fill="#FFC774"/>
    <path d="M88.5762 18H84.2922V8.874H81.1602V5.256H91.7082V8.874H88.5762V18ZM91.164 8.532H95.16V9.612H95.196C95.4 9.228 95.7 8.91 96.096 8.658C96.504 8.406 96.978 8.28 97.518 8.28C97.842 8.28 98.106 8.31 98.31 8.37L97.986 11.898C97.854 11.862 97.704 11.838 97.536 11.826C97.38 11.802 97.236 11.79 97.104 11.79C96.564 11.79 96.132 11.946 95.808 12.258C95.484 12.57 95.322 12.954 95.322 13.41V18H91.164V8.532ZM103.921 14.076C103.309 14.076 102.817 14.142 102.445 14.274C102.073 14.406 101.887 14.652 101.887 15.012C101.887 15.144 101.917 15.258 101.977 15.354C102.037 15.438 102.115 15.51 102.211 15.57C102.307 15.63 102.409 15.678 102.517 15.714C102.637 15.738 102.745 15.75 102.841 15.75C103.237 15.75 103.555 15.624 103.795 15.372C104.035 15.12 104.155 14.796 104.155 14.4V14.076H103.921ZM103.885 11.988C103.885 11.7 103.783 11.49 103.579 11.358C103.387 11.214 103.129 11.142 102.805 11.142C102.421 11.142 102.055 11.226 101.707 11.394C101.371 11.55 101.071 11.736 100.807 11.952L98.7372 9.9C99.3132 9.348 99.9972 8.922 100.789 8.622C101.581 8.322 102.397 8.172 103.237 8.172C104.137 8.172 104.881 8.298 105.469 8.55C106.057 8.802 106.519 9.15 106.855 9.594C107.203 10.038 107.443 10.554 107.575 11.142C107.719 11.73 107.791 12.354 107.791 13.014V18H104.029V17.244H103.993C103.753 17.604 103.411 17.862 102.967 18.018C102.523 18.174 102.091 18.252 101.671 18.252C101.299 18.252 100.915 18.198 100.519 18.09C100.135 17.982 99.7812 17.808 99.4572 17.568C99.1452 17.328 98.8872 17.016 98.6832 16.632C98.4792 16.248 98.3772 15.774 98.3772 15.21C98.3772 14.55 98.5452 14.016 98.8812 13.608C99.2292 13.188 99.6672 12.864 100.195 12.636C100.723 12.396 101.311 12.234 101.959 12.15C102.619 12.066 103.261 12.024 103.885 12.024V11.988ZM108.4 8.532H113.008L114.358 13.644H114.43L115.726 8.532H120.172L116.518 18H112L108.4 8.532ZM127.276 12.006C127.276 11.67 127.15 11.394 126.898 11.178C126.658 10.962 126.328 10.854 125.908 10.854C125.452 10.854 125.098 10.98 124.846 11.232C124.594 11.484 124.45 11.742 124.414 12.006H127.276ZM130.858 13.356C130.858 13.512 130.852 13.674 130.84 13.842C130.84 13.998 130.834 14.13 130.822 14.238H124.45C124.462 14.406 124.516 14.556 124.612 14.688C124.72 14.82 124.846 14.934 124.99 15.03C125.146 15.126 125.314 15.198 125.494 15.246C125.686 15.294 125.878 15.318 126.07 15.318C126.454 15.318 126.772 15.252 127.024 15.12C127.288 14.976 127.486 14.82 127.618 14.652L130.57 16.146C130.15 16.83 129.538 17.37 128.734 17.766C127.942 18.162 127.018 18.36 125.962 18.36C125.278 18.36 124.612 18.252 123.964 18.036C123.316 17.82 122.74 17.502 122.236 17.082C121.744 16.65 121.348 16.116 121.048 15.48C120.748 14.844 120.598 14.106 120.598 13.266C120.598 12.486 120.736 11.784 121.012 11.16C121.288 10.524 121.66 9.99 122.128 9.558C122.608 9.114 123.166 8.772 123.802 8.532C124.45 8.292 125.14 8.172 125.872 8.172C126.616 8.172 127.294 8.304 127.906 8.568C128.518 8.82 129.04 9.18 129.472 9.648C129.916 10.104 130.258 10.65 130.498 11.286C130.738 11.922 130.858 12.612 130.858 13.356ZM132.314 8.532H136.31V9.612H136.346C136.55 9.228 136.85 8.91 137.246 8.658C137.654 8.406 138.128 8.28 138.668 8.28C138.992 8.28 139.256 8.31 139.46 8.37L139.136 11.898C139.004 11.862 138.854 11.838 138.686 11.826C138.53 11.802 138.386 11.79 138.254 11.79C137.714 11.79 137.282 11.946 136.958 12.258C136.634 12.57 136.472 12.954 136.472 13.41V18H132.314V8.532ZM150.436 13.23C150.436 14.046 150.286 14.772 149.986 15.408C149.698 16.044 149.302 16.584 148.798 17.028C148.306 17.46 147.73 17.79 147.07 18.018C146.422 18.246 145.738 18.36 145.018 18.36C144.31 18.36 143.626 18.246 142.966 18.018C142.318 17.79 141.748 17.46 141.256 17.028C140.764 16.584 140.368 16.044 140.068 15.408C139.78 14.772 139.636 14.046 139.636 13.23C139.636 12.426 139.78 11.712 140.068 11.088C140.368 10.452 140.764 9.918 141.256 9.486C141.748 9.054 142.318 8.73 142.966 8.514C143.626 8.286 144.31 8.172 145.018 8.172C145.738 8.172 146.422 8.286 147.07 8.514C147.73 8.73 148.306 9.054 148.798 9.486C149.302 9.918 149.698 10.452 149.986 11.088C150.286 11.712 150.436 12.426 150.436 13.23ZM145.018 11.664C144.562 11.664 144.19 11.82 143.902 12.132C143.626 12.444 143.488 12.81 143.488 13.23C143.488 13.674 143.632 14.052 143.92 14.364C144.208 14.676 144.58 14.832 145.036 14.832C145.492 14.832 145.864 14.676 146.152 14.364C146.44 14.052 146.584 13.674 146.584 13.23C146.584 12.81 146.434 12.444 146.134 12.132C145.846 11.82 145.474 11.664 145.018 11.664ZM162.389 13.23C162.389 14.046 162.239 14.772 161.939 15.408C161.651 16.044 161.255 16.584 160.751 17.028C160.259 17.46 159.683 17.79 159.023 18.018C158.375 18.246 157.691 18.36 156.971 18.36C156.263 18.36 155.579 18.246 154.919 18.018C154.271 17.79 153.701 17.46 153.209 17.028C152.717 16.584 152.321 16.044 152.021 15.408C151.733 14.772 151.589 14.046 151.589 13.23C151.589 12.426 151.733 11.712 152.021 11.088C152.321 10.452 152.717 9.918 153.209 9.486C153.701 9.054 154.271 8.73 154.919 8.514C155.579 8.286 156.263 8.172 156.971 8.172C157.691 8.172 158.375 8.286 159.023 8.514C159.683 8.73 160.259 9.054 160.751 9.486C161.255 9.918 161.651 10.452 161.939 11.088C162.239 11.712 162.389 12.426 162.389 13.23ZM156.971 11.664C156.515 11.664 156.143 11.82 155.855 12.132C155.579 12.444 155.441 12.81 155.441 13.23C155.441 13.674 155.585 14.052 155.873 14.364C156.161 14.676 156.533 14.832 156.989 14.832C157.445 14.832 157.817 14.676 158.105 14.364C158.393 14.052 158.537 13.674 158.537 13.23C158.537 12.81 158.387 12.444 158.087 12.132C157.799 11.82 157.427 11.664 156.971 11.664Z" fill="#071F44"/>
    <path d="M89.528 40.752C89.528 41.4 89.416 41.996 89.192 42.54C88.968 43.084 88.656 43.556 88.256 43.956C87.864 44.348 87.396 44.656 86.852 44.88C86.316 45.104 85.732 45.216 85.1 45.216C84.468 45.216 83.88 45.104 83.336 44.88C82.8 44.656 82.332 44.348 81.932 43.956C81.54 43.556 81.232 43.084 81.008 42.54C80.784 41.996 80.672 41.4 80.672 40.752C80.672 40.104 80.784 39.508 81.008 38.964C81.232 38.42 81.54 37.952 81.932 37.56C82.332 37.16 82.8 36.848 83.336 36.624C83.88 36.4 84.468 36.288 85.1 36.288C85.732 36.288 86.316 36.4 86.852 36.624C87.396 36.848 87.864 37.16 88.256 37.56C88.656 37.952 88.968 38.42 89.192 38.964C89.416 39.508 89.528 40.104 89.528 40.752ZM88.616 40.752C88.616 40.256 88.536 39.784 88.376 39.336C88.216 38.888 87.984 38.496 87.68 38.16C87.376 37.816 87.004 37.544 86.564 37.344C86.132 37.144 85.644 37.044 85.1 37.044C84.556 37.044 84.064 37.144 83.624 37.344C83.192 37.544 82.824 37.816 82.52 38.16C82.216 38.496 81.984 38.888 81.824 39.336C81.664 39.784 81.584 40.256 81.584 40.752C81.584 41.248 81.664 41.72 81.824 42.168C81.984 42.616 82.216 43.008 82.52 43.344C82.824 43.68 83.192 43.948 83.624 44.148C84.064 44.348 84.556 44.448 85.1 44.448C85.644 44.448 86.132 44.348 86.564 44.148C87.004 43.948 87.376 43.68 87.68 43.344C87.984 43.008 88.216 42.616 88.376 42.168C88.536 41.72 88.616 41.248 88.616 40.752ZM92.0073 39.384C92.0233 39.536 92.0353 39.704 92.0433 39.888C92.0513 40.072 92.0553 40.224 92.0553 40.344H92.0793C92.2393 40.016 92.4993 39.752 92.8593 39.552C93.2193 39.344 93.5993 39.24 93.9993 39.24C94.7113 39.24 95.2433 39.452 95.5953 39.876C95.9553 40.3 96.1353 40.86 96.1353 41.556V45H95.3193V41.892C95.3193 41.596 95.2953 41.328 95.2473 41.088C95.1993 40.848 95.1153 40.644 94.9953 40.476C94.8833 40.3 94.7273 40.164 94.5273 40.068C94.3353 39.972 94.0913 39.924 93.7953 39.924C93.5793 39.924 93.3673 39.968 93.1593 40.056C92.9593 40.144 92.7793 40.28 92.6193 40.464C92.4593 40.64 92.3313 40.868 92.2353 41.148C92.1393 41.42 92.0913 41.744 92.0913 42.12V45H91.2753V40.62C91.2753 40.468 91.2713 40.272 91.2633 40.032C91.2553 39.792 91.2433 39.576 91.2273 39.384H92.0073ZM100.432 42.432H97.744V41.748H100.432V42.432ZM106.712 44.052C106.472 44.412 106.16 44.684 105.776 44.868C105.392 45.052 104.996 45.144 104.588 45.144C104.148 45.144 103.748 45.068 103.388 44.916C103.036 44.764 102.732 44.556 102.476 44.292C102.228 44.028 102.032 43.716 101.888 43.356C101.752 42.996 101.684 42.608 101.684 42.192C101.684 41.776 101.752 41.388 101.888 41.028C102.032 40.668 102.228 40.356 102.476 40.092C102.732 39.828 103.036 39.62 103.388 39.468C103.748 39.316 104.148 39.24 104.588 39.24C104.996 39.24 105.392 39.336 105.776 39.528C106.16 39.712 106.472 39.988 106.712 40.356H106.736V35.928H107.552V45H106.736V44.052H106.712ZM102.548 42.192C102.548 42.504 102.596 42.8 102.692 43.08C102.788 43.352 102.924 43.592 103.1 43.8C103.284 44 103.508 44.16 103.772 44.28C104.036 44.392 104.336 44.448 104.672 44.448C104.984 44.448 105.272 44.392 105.536 44.28C105.8 44.16 106.028 44 106.22 43.8C106.412 43.6 106.56 43.364 106.664 43.092C106.776 42.812 106.832 42.512 106.832 42.192C106.832 41.872 106.776 41.576 106.664 41.304C106.56 41.024 106.412 40.784 106.22 40.584C106.028 40.376 105.8 40.216 105.536 40.104C105.272 39.984 104.984 39.924 104.672 39.924C104.336 39.924 104.036 39.984 103.772 40.104C103.508 40.224 103.284 40.388 103.1 40.596C102.924 40.796 102.788 41.036 102.692 41.316C102.596 41.588 102.548 41.88 102.548 42.192ZM114.016 41.76C113.992 41.232 113.82 40.796 113.5 40.452C113.188 40.1 112.74 39.924 112.156 39.924C111.884 39.924 111.632 39.976 111.4 40.08C111.168 40.176 110.964 40.312 110.788 40.488C110.612 40.656 110.472 40.852 110.368 41.076C110.264 41.292 110.204 41.52 110.188 41.76H114.016ZM114.844 42.024C114.844 42.08 114.844 42.14 114.844 42.204C114.844 42.268 114.84 42.336 114.832 42.408H110.176C110.184 42.688 110.24 42.952 110.344 43.2C110.448 43.448 110.592 43.664 110.776 43.848C110.96 44.032 111.176 44.18 111.424 44.292C111.672 44.396 111.94 44.448 112.228 44.448C112.652 44.448 113.016 44.352 113.32 44.16C113.632 43.96 113.868 43.732 114.028 43.476L114.64 43.956C114.304 44.38 113.932 44.684 113.524 44.868C113.124 45.052 112.692 45.144 112.228 45.144C111.812 45.144 111.424 45.072 111.064 44.928C110.712 44.776 110.408 44.568 110.152 44.304C109.896 44.04 109.692 43.728 109.54 43.368C109.396 43.008 109.324 42.616 109.324 42.192C109.324 41.768 109.396 41.376 109.54 41.016C109.684 40.656 109.884 40.344 110.14 40.08C110.396 39.816 110.696 39.612 111.04 39.468C111.384 39.316 111.756 39.24 112.156 39.24C112.596 39.24 112.984 39.316 113.32 39.468C113.656 39.612 113.936 39.812 114.16 40.068C114.384 40.316 114.552 40.608 114.664 40.944C114.784 41.28 114.844 41.64 114.844 42.024ZM117.404 40.344C117.564 40.016 117.808 39.752 118.136 39.552C118.472 39.344 118.844 39.24 119.252 39.24C119.404 39.24 119.56 39.256 119.72 39.288C119.888 39.32 120.048 39.384 120.2 39.48C120.36 39.568 120.504 39.688 120.632 39.84C120.768 39.992 120.884 40.188 120.98 40.428C121.172 40.044 121.432 39.752 121.76 39.552C122.096 39.344 122.492 39.24 122.948 39.24C123.66 39.24 124.192 39.452 124.544 39.876C124.904 40.3 125.084 40.86 125.084 41.556V45H124.268V41.892C124.268 41.3 124.156 40.824 123.932 40.464C123.716 40.104 123.344 39.924 122.816 39.924C122.52 39.924 122.268 39.984 122.06 40.104C121.86 40.224 121.696 40.384 121.568 40.584C121.448 40.776 121.36 40.996 121.304 41.244C121.248 41.492 121.22 41.748 121.22 42.012V45H120.404V41.724C120.404 41.452 120.384 41.204 120.344 40.98C120.304 40.756 120.232 40.568 120.128 40.416C120.032 40.256 119.896 40.136 119.72 40.056C119.544 39.968 119.32 39.924 119.048 39.924C118.856 39.924 118.66 39.968 118.46 40.056C118.268 40.144 118.092 40.28 117.932 40.464C117.78 40.64 117.656 40.868 117.56 41.148C117.464 41.42 117.416 41.744 117.416 42.12V45H116.6V40.62C116.6 40.468 116.596 40.272 116.588 40.032C116.58 39.792 116.568 39.576 116.552 39.384H117.332C117.348 39.536 117.36 39.704 117.368 39.888C117.376 40.072 117.38 40.224 117.38 40.344H117.404ZM130.733 41.376C130.733 40.888 130.605 40.524 130.349 40.284C130.093 40.044 129.721 39.924 129.233 39.924C128.897 39.924 128.585 39.984 128.297 40.104C128.009 40.224 127.765 40.384 127.565 40.584L127.109 40.044C127.341 39.812 127.645 39.62 128.021 39.468C128.405 39.316 128.837 39.24 129.317 39.24C129.621 39.24 129.905 39.284 130.169 39.372C130.433 39.452 130.665 39.576 130.865 39.744C131.065 39.912 131.221 40.124 131.333 40.38C131.445 40.636 131.501 40.936 131.501 41.28V43.74C131.501 43.956 131.509 44.18 131.525 44.412C131.541 44.644 131.565 44.84 131.597 45H130.865C130.841 44.864 130.821 44.716 130.805 44.556C130.789 44.396 130.781 44.24 130.781 44.088H130.757C130.501 44.464 130.209 44.736 129.881 44.904C129.561 45.064 129.173 45.144 128.717 45.144C128.501 45.144 128.277 45.112 128.045 45.048C127.821 44.992 127.613 44.896 127.421 44.76C127.237 44.624 127.081 44.448 126.953 44.232C126.833 44.016 126.773 43.752 126.773 43.44C126.773 43.008 126.881 42.668 127.097 42.42C127.321 42.164 127.617 41.976 127.985 41.856C128.353 41.728 128.773 41.648 129.245 41.616C129.725 41.576 130.221 41.556 130.733 41.556V41.376ZM130.493 42.192C130.157 42.192 129.817 42.208 129.473 42.24C129.137 42.264 128.829 42.32 128.549 42.408C128.277 42.488 128.053 42.608 127.877 42.768C127.701 42.928 127.613 43.14 127.613 43.404C127.613 43.604 127.649 43.772 127.721 43.908C127.801 44.044 127.905 44.156 128.033 44.244C128.161 44.324 128.301 44.384 128.453 44.424C128.613 44.456 128.773 44.472 128.933 44.472C129.221 44.472 129.477 44.424 129.701 44.328C129.925 44.224 130.113 44.088 130.265 43.92C130.417 43.744 130.533 43.544 130.613 43.32C130.693 43.096 130.733 42.86 130.733 42.612V42.192H130.493ZM134.335 39.384C134.351 39.536 134.363 39.704 134.371 39.888C134.379 40.072 134.383 40.224 134.383 40.344H134.407C134.567 40.016 134.827 39.752 135.187 39.552C135.547 39.344 135.927 39.24 136.327 39.24C137.039 39.24 137.571 39.452 137.923 39.876C138.283 40.3 138.463 40.86 138.463 41.556V45H137.647V41.892C137.647 41.596 137.623 41.328 137.575 41.088C137.527 40.848 137.443 40.644 137.323 40.476C137.211 40.3 137.055 40.164 136.855 40.068C136.663 39.972 136.419 39.924 136.123 39.924C135.907 39.924 135.695 39.968 135.487 40.056C135.287 40.144 135.107 40.28 134.947 40.464C134.787 40.64 134.659 40.868 134.563 41.148C134.467 41.42 134.419 41.744 134.419 42.12V45H133.603V40.62C133.603 40.468 133.599 40.272 133.591 40.032C133.583 39.792 133.571 39.576 133.555 39.384H134.335ZM145.196 44.052C144.956 44.412 144.644 44.684 144.26 44.868C143.876 45.052 143.48 45.144 143.072 45.144C142.632 45.144 142.232 45.068 141.872 44.916C141.52 44.764 141.216 44.556 140.96 44.292C140.712 44.028 140.516 43.716 140.372 43.356C140.236 42.996 140.168 42.608 140.168 42.192C140.168 41.776 140.236 41.388 140.372 41.028C140.516 40.668 140.712 40.356 140.96 40.092C141.216 39.828 141.52 39.62 141.872 39.468C142.232 39.316 142.632 39.24 143.072 39.24C143.48 39.24 143.876 39.336 144.26 39.528C144.644 39.712 144.956 39.988 145.196 40.356H145.22V35.928H146.036V45H145.22V44.052H145.196ZM141.032 42.192C141.032 42.504 141.08 42.8 141.176 43.08C141.272 43.352 141.408 43.592 141.584 43.8C141.768 44 141.992 44.16 142.256 44.28C142.52 44.392 142.82 44.448 143.156 44.448C143.468 44.448 143.756 44.392 144.02 44.28C144.284 44.16 144.512 44 144.704 43.8C144.896 43.6 145.044 43.364 145.148 43.092C145.26 42.812 145.316 42.512 145.316 42.192C145.316 41.872 145.26 41.576 145.148 41.304C145.044 41.024 144.896 40.784 144.704 40.584C144.512 40.376 144.284 40.216 144.02 40.104C143.756 39.984 143.468 39.924 143.156 39.924C142.82 39.924 142.52 39.984 142.256 40.104C141.992 40.224 141.768 40.388 141.584 40.596C141.408 40.796 141.272 41.036 141.176 41.316C141.08 41.588 141.032 41.88 141.032 42.192ZM157.709 38.028C157.413 37.716 157.061 37.476 156.653 37.308C156.245 37.132 155.777 37.044 155.249 37.044C154.705 37.044 154.213 37.144 153.773 37.344C153.341 37.544 152.973 37.816 152.669 38.16C152.365 38.496 152.129 38.888 151.961 39.336C151.801 39.784 151.721 40.256 151.721 40.752C151.721 41.248 151.801 41.72 151.961 42.168C152.129 42.616 152.365 43.008 152.669 43.344C152.973 43.68 153.341 43.948 153.773 44.148C154.213 44.348 154.705 44.448 155.249 44.448C155.729 44.448 156.169 44.396 156.569 44.292C156.969 44.188 157.293 44.056 157.541 43.896V41.316H155.561V40.56H158.405V44.388C157.941 44.668 157.441 44.876 156.905 45.012C156.369 45.148 155.813 45.216 155.237 45.216C154.597 45.216 154.005 45.104 153.461 44.88C152.917 44.656 152.449 44.348 152.057 43.956C151.665 43.556 151.357 43.084 151.133 42.54C150.917 41.996 150.809 41.4 150.809 40.752C150.809 40.104 150.921 39.508 151.145 38.964C151.369 38.42 151.677 37.952 152.069 37.56C152.469 37.16 152.937 36.848 153.473 36.624C154.017 36.4 154.605 36.288 155.237 36.288C155.917 36.288 156.509 36.388 157.013 36.588C157.517 36.788 157.949 37.068 158.309 37.428L157.709 38.028ZM160.616 36.504H163.016C163.448 36.504 163.84 36.552 164.192 36.648C164.544 36.736 164.844 36.876 165.092 37.068C165.348 37.252 165.544 37.488 165.68 37.776C165.816 38.056 165.884 38.388 165.884 38.772C165.884 39.156 165.812 39.492 165.668 39.78C165.532 40.06 165.336 40.296 165.08 40.488C164.832 40.672 164.528 40.812 164.168 40.908C163.816 41.004 163.424 41.052 162.992 41.052H161.48V45H160.616V36.504ZM161.48 40.32H162.944C163.624 40.32 164.14 40.188 164.492 39.924C164.844 39.66 165.02 39.276 165.02 38.772C165.02 38.244 164.836 37.86 164.468 37.62C164.108 37.372 163.6 37.248 162.944 37.248H161.48V40.32ZM171.693 37.872C171.509 37.616 171.273 37.412 170.985 37.26C170.697 37.1 170.349 37.02 169.941 37.02C169.733 37.02 169.521 37.052 169.305 37.116C169.089 37.18 168.893 37.28 168.717 37.416C168.541 37.544 168.397 37.708 168.285 37.908C168.181 38.108 168.129 38.344 168.129 38.616C168.129 38.888 168.181 39.112 168.285 39.288C168.389 39.464 168.525 39.616 168.693 39.744C168.869 39.864 169.065 39.964 169.281 40.044C169.505 40.124 169.737 40.204 169.977 40.284C170.273 40.38 170.569 40.484 170.865 40.596C171.169 40.708 171.441 40.856 171.681 41.04C171.921 41.216 172.117 41.444 172.269 41.724C172.421 41.996 172.497 42.344 172.497 42.768C172.497 43.192 172.413 43.56 172.245 43.872C172.085 44.176 171.873 44.428 171.609 44.628C171.353 44.828 171.057 44.976 170.721 45.072C170.393 45.168 170.061 45.216 169.725 45.216C169.469 45.216 169.213 45.188 168.957 45.132C168.701 45.084 168.457 45.008 168.225 44.904C167.993 44.8 167.777 44.668 167.577 44.508C167.377 44.348 167.201 44.164 167.049 43.956L167.793 43.404C167.977 43.708 168.233 43.964 168.561 44.172C168.897 44.372 169.289 44.472 169.737 44.472C169.953 44.472 170.173 44.44 170.397 44.376C170.621 44.304 170.821 44.2 170.997 44.064C171.181 43.92 171.329 43.748 171.441 43.548C171.561 43.34 171.621 43.1 171.621 42.828C171.621 42.532 171.561 42.288 171.441 42.096C171.329 41.896 171.177 41.732 170.985 41.604C170.793 41.468 170.573 41.356 170.325 41.268C170.077 41.18 169.817 41.092 169.545 41.004C169.265 40.916 168.989 40.816 168.717 40.704C168.445 40.592 168.201 40.448 167.985 40.272C167.769 40.088 167.593 39.864 167.457 39.6C167.329 39.336 167.265 39.012 167.265 38.628C167.265 38.22 167.345 37.868 167.505 37.572C167.673 37.276 167.889 37.032 168.153 36.84C168.417 36.648 168.709 36.508 169.029 36.42C169.349 36.332 169.665 36.288 169.977 36.288C170.553 36.288 171.045 36.392 171.453 36.6C171.861 36.8 172.169 37.04 172.377 37.32L171.693 37.872ZM178.143 44.052V45H177.327V35.928H178.143V40.356H178.167C178.407 39.988 178.719 39.712 179.103 39.528C179.487 39.336 179.883 39.24 180.291 39.24C180.731 39.24 181.127 39.316 181.479 39.468C181.839 39.62 182.143 39.828 182.391 40.092C182.647 40.356 182.843 40.668 182.979 41.028C183.123 41.388 183.195 41.776 183.195 42.192C183.195 42.608 183.123 42.996 182.979 43.356C182.843 43.716 182.647 44.028 182.391 44.292C182.143 44.556 181.839 44.764 181.479 44.916C181.127 45.068 180.731 45.144 180.291 45.144C179.883 45.144 179.487 45.052 179.103 44.868C178.719 44.684 178.407 44.412 178.167 44.052H178.143ZM182.331 42.192C182.331 41.88 182.283 41.588 182.187 41.316C182.091 41.036 181.951 40.796 181.767 40.596C181.591 40.388 181.371 40.224 181.107 40.104C180.843 39.984 180.543 39.924 180.207 39.924C179.895 39.924 179.607 39.984 179.343 40.104C179.079 40.216 178.851 40.376 178.659 40.584C178.467 40.784 178.315 41.024 178.203 41.304C178.099 41.576 178.047 41.872 178.047 42.192C178.047 42.512 178.099 42.812 178.203 43.092C178.315 43.364 178.467 43.6 178.659 43.8C178.851 44 179.079 44.16 179.343 44.28C179.607 44.392 179.895 44.448 180.207 44.448C180.543 44.448 180.843 44.392 181.107 44.28C181.371 44.16 181.591 44 181.767 43.8C181.951 43.592 182.091 43.352 182.187 43.08C182.283 42.8 182.331 42.504 182.331 42.192ZM188.483 41.376C188.483 40.888 188.355 40.524 188.099 40.284C187.843 40.044 187.471 39.924 186.983 39.924C186.647 39.924 186.335 39.984 186.047 40.104C185.759 40.224 185.515 40.384 185.315 40.584L184.859 40.044C185.091 39.812 185.395 39.62 185.771 39.468C186.155 39.316 186.587 39.24 187.067 39.24C187.371 39.24 187.655 39.284 187.919 39.372C188.183 39.452 188.415 39.576 188.615 39.744C188.815 39.912 188.971 40.124 189.083 40.38C189.195 40.636 189.251 40.936 189.251 41.28V43.74C189.251 43.956 189.259 44.18 189.275 44.412C189.291 44.644 189.315 44.84 189.347 45H188.615C188.591 44.864 188.571 44.716 188.555 44.556C188.539 44.396 188.531 44.24 188.531 44.088H188.507C188.251 44.464 187.959 44.736 187.631 44.904C187.311 45.064 186.923 45.144 186.467 45.144C186.251 45.144 186.027 45.112 185.795 45.048C185.571 44.992 185.363 44.896 185.171 44.76C184.987 44.624 184.831 44.448 184.703 44.232C184.583 44.016 184.523 43.752 184.523 43.44C184.523 43.008 184.631 42.668 184.847 42.42C185.071 42.164 185.367 41.976 185.735 41.856C186.103 41.728 186.523 41.648 186.995 41.616C187.475 41.576 187.971 41.556 188.483 41.556V41.376ZM188.243 42.192C187.907 42.192 187.567 42.208 187.223 42.24C186.887 42.264 186.579 42.32 186.299 42.408C186.027 42.488 185.803 42.608 185.627 42.768C185.451 42.928 185.363 43.14 185.363 43.404C185.363 43.604 185.399 43.772 185.471 43.908C185.551 44.044 185.655 44.156 185.783 44.244C185.911 44.324 186.051 44.384 186.203 44.424C186.363 44.456 186.523 44.472 186.683 44.472C186.971 44.472 187.227 44.424 187.451 44.328C187.675 44.224 187.863 44.088 188.015 43.92C188.167 43.744 188.283 43.544 188.363 43.32C188.443 43.096 188.483 42.86 188.483 42.612V42.192H188.243ZM194.341 40.716C194.221 40.484 194.037 40.296 193.789 40.152C193.549 40 193.273 39.924 192.961 39.924C192.817 39.924 192.673 39.94 192.529 39.972C192.385 40.004 192.257 40.056 192.145 40.128C192.033 40.2 191.941 40.292 191.869 40.404C191.805 40.516 191.773 40.648 191.773 40.8C191.773 41.064 191.881 41.268 192.097 41.412C192.313 41.548 192.653 41.664 193.117 41.76C193.781 41.896 194.269 42.096 194.581 42.36C194.901 42.616 195.061 42.964 195.061 43.404C195.061 43.724 194.997 43.996 194.869 44.22C194.749 44.436 194.589 44.616 194.389 44.76C194.189 44.896 193.961 44.992 193.705 45.048C193.457 45.112 193.205 45.144 192.949 45.144C192.525 45.144 192.113 45.056 191.713 44.88C191.313 44.704 190.985 44.428 190.729 44.052L191.377 43.572C191.521 43.82 191.733 44.028 192.013 44.196C192.293 44.364 192.601 44.448 192.937 44.448C193.113 44.448 193.281 44.432 193.441 44.4C193.601 44.368 193.741 44.312 193.861 44.232C193.981 44.152 194.077 44.052 194.149 43.932C194.221 43.804 194.257 43.648 194.257 43.464C194.257 43.168 194.113 42.948 193.825 42.804C193.545 42.652 193.137 42.512 192.601 42.384C192.433 42.344 192.253 42.296 192.061 42.24C191.877 42.176 191.705 42.088 191.545 41.976C191.385 41.856 191.253 41.708 191.149 41.532C191.045 41.356 190.993 41.136 190.993 40.872C190.993 40.584 191.049 40.34 191.161 40.14C191.273 39.932 191.421 39.764 191.605 39.636C191.797 39.5 192.013 39.4 192.253 39.336C192.493 39.272 192.741 39.24 192.997 39.24C193.389 39.24 193.769 39.328 194.137 39.504C194.505 39.68 194.781 39.928 194.965 40.248L194.341 40.716ZM200.969 41.76C200.945 41.232 200.773 40.796 200.453 40.452C200.141 40.1 199.693 39.924 199.109 39.924C198.837 39.924 198.585 39.976 198.353 40.08C198.121 40.176 197.917 40.312 197.741 40.488C197.565 40.656 197.425 40.852 197.321 41.076C197.217 41.292 197.157 41.52 197.141 41.76H200.969ZM201.797 42.024C201.797 42.08 201.797 42.14 201.797 42.204C201.797 42.268 201.793 42.336 201.785 42.408H197.129C197.137 42.688 197.193 42.952 197.297 43.2C197.401 43.448 197.545 43.664 197.729 43.848C197.913 44.032 198.129 44.18 198.377 44.292C198.625 44.396 198.893 44.448 199.181 44.448C199.605 44.448 199.969 44.352 200.273 44.16C200.585 43.96 200.821 43.732 200.981 43.476L201.593 43.956C201.257 44.38 200.885 44.684 200.477 44.868C200.077 45.052 199.645 45.144 199.181 45.144C198.765 45.144 198.377 45.072 198.017 44.928C197.665 44.776 197.361 44.568 197.105 44.304C196.849 44.04 196.645 43.728 196.493 43.368C196.349 43.008 196.277 42.616 196.277 42.192C196.277 41.768 196.349 41.376 196.493 41.016C196.637 40.656 196.837 40.344 197.093 40.08C197.349 39.816 197.649 39.612 197.993 39.468C198.337 39.316 198.709 39.24 199.109 39.24C199.549 39.24 199.937 39.316 200.273 39.468C200.609 39.612 200.889 39.812 201.113 40.068C201.337 40.316 201.505 40.608 201.617 40.944C201.737 41.28 201.797 41.64 201.797 42.024ZM208.173 44.052C207.933 44.412 207.621 44.684 207.237 44.868C206.853 45.052 206.457 45.144 206.049 45.144C205.609 45.144 205.209 45.068 204.849 44.916C204.497 44.764 204.193 44.556 203.937 44.292C203.689 44.028 203.493 43.716 203.349 43.356C203.213 42.996 203.145 42.608 203.145 42.192C203.145 41.776 203.213 41.388 203.349 41.028C203.493 40.668 203.689 40.356 203.937 40.092C204.193 39.828 204.497 39.62 204.849 39.468C205.209 39.316 205.609 39.24 206.049 39.24C206.457 39.24 206.853 39.336 207.237 39.528C207.621 39.712 207.933 39.988 208.173 40.356H208.197V35.928H209.013V45H208.197V44.052H208.173ZM204.009 42.192C204.009 42.504 204.057 42.8 204.153 43.08C204.249 43.352 204.385 43.592 204.561 43.8C204.745 44 204.969 44.16 205.233 44.28C205.497 44.392 205.797 44.448 206.133 44.448C206.445 44.448 206.733 44.392 206.997 44.28C207.261 44.16 207.489 44 207.681 43.8C207.873 43.6 208.021 43.364 208.125 43.092C208.237 42.812 208.293 42.512 208.293 42.192C208.293 41.872 208.237 41.576 208.125 41.304C208.021 41.024 207.873 40.784 207.681 40.584C207.489 40.376 207.261 40.216 206.997 40.104C206.733 39.984 206.445 39.924 206.133 39.924C205.797 39.924 205.497 39.984 205.233 40.104C204.969 40.224 204.745 40.388 204.561 40.596C204.385 40.796 204.249 41.036 204.153 41.316C204.057 41.588 204.009 41.88 204.009 42.192ZM217.733 41.376C217.733 40.888 217.605 40.524 217.349 40.284C217.093 40.044 216.721 39.924 216.233 39.924C215.897 39.924 215.585 39.984 215.297 40.104C215.009 40.224 214.765 40.384 214.565 40.584L214.109 40.044C214.341 39.812 214.645 39.62 215.021 39.468C215.405 39.316 215.837 39.24 216.317 39.24C216.621 39.24 216.905 39.284 217.169 39.372C217.433 39.452 217.665 39.576 217.865 39.744C218.065 39.912 218.221 40.124 218.333 40.38C218.445 40.636 218.501 40.936 218.501 41.28V43.74C218.501 43.956 218.509 44.18 218.525 44.412C218.541 44.644 218.565 44.84 218.597 45H217.865C217.841 44.864 217.821 44.716 217.805 44.556C217.789 44.396 217.781 44.24 217.781 44.088H217.757C217.501 44.464 217.209 44.736 216.881 44.904C216.561 45.064 216.173 45.144 215.717 45.144C215.501 45.144 215.277 45.112 215.045 45.048C214.821 44.992 214.613 44.896 214.421 44.76C214.237 44.624 214.081 44.448 213.953 44.232C213.833 44.016 213.773 43.752 213.773 43.44C213.773 43.008 213.881 42.668 214.097 42.42C214.321 42.164 214.617 41.976 214.985 41.856C215.353 41.728 215.773 41.648 216.245 41.616C216.725 41.576 217.221 41.556 217.733 41.556V41.376ZM217.493 42.192C217.157 42.192 216.817 42.208 216.473 42.24C216.137 42.264 215.829 42.32 215.549 42.408C215.277 42.488 215.053 42.608 214.877 42.768C214.701 42.928 214.613 43.14 214.613 43.404C214.613 43.604 214.649 43.772 214.721 43.908C214.801 44.044 214.905 44.156 215.033 44.244C215.161 44.324 215.301 44.384 215.453 44.424C215.613 44.456 215.773 44.472 215.933 44.472C216.221 44.472 216.477 44.424 216.701 44.328C216.925 44.224 217.113 44.088 217.265 43.92C217.417 43.744 217.533 43.544 217.613 43.32C217.693 43.096 217.733 42.86 217.733 42.612V42.192H217.493ZM224.683 45C224.667 44.848 224.655 44.68 224.647 44.496C224.639 44.312 224.635 44.16 224.635 44.04H224.611C224.451 44.368 224.191 44.636 223.831 44.844C223.471 45.044 223.091 45.144 222.691 45.144C221.979 45.144 221.443 44.932 221.083 44.508C220.731 44.084 220.555 43.524 220.555 42.828V39.384H221.371V42.492C221.371 42.788 221.395 43.056 221.443 43.296C221.491 43.536 221.571 43.744 221.683 43.92C221.803 44.088 221.959 44.22 222.151 44.316C222.351 44.412 222.599 44.46 222.895 44.46C223.111 44.46 223.319 44.416 223.519 44.328C223.727 44.24 223.911 44.108 224.071 43.932C224.231 43.748 224.359 43.52 224.455 43.248C224.551 42.968 224.599 42.64 224.599 42.264V39.384H225.415V43.764C225.415 43.916 225.419 44.112 225.427 44.352C225.435 44.592 225.447 44.808 225.463 45H224.683ZM232.196 44.052C231.956 44.412 231.644 44.684 231.26 44.868C230.876 45.052 230.48 45.144 230.072 45.144C229.632 45.144 229.232 45.068 228.872 44.916C228.52 44.764 228.216 44.556 227.96 44.292C227.712 44.028 227.516 43.716 227.372 43.356C227.236 42.996 227.168 42.608 227.168 42.192C227.168 41.776 227.236 41.388 227.372 41.028C227.516 40.668 227.712 40.356 227.96 40.092C228.216 39.828 228.52 39.62 228.872 39.468C229.232 39.316 229.632 39.24 230.072 39.24C230.48 39.24 230.876 39.336 231.26 39.528C231.644 39.712 231.956 39.988 232.196 40.356H232.22V35.928H233.036V45H232.22V44.052H232.196ZM228.032 42.192C228.032 42.504 228.08 42.8 228.176 43.08C228.272 43.352 228.408 43.592 228.584 43.8C228.768 44 228.992 44.16 229.256 44.28C229.52 44.392 229.82 44.448 230.156 44.448C230.468 44.448 230.756 44.392 231.02 44.28C231.284 44.16 231.512 44 231.704 43.8C231.896 43.6 232.044 43.364 232.148 43.092C232.26 42.812 232.316 42.512 232.316 42.192C232.316 41.872 232.26 41.576 232.148 41.304C232.044 41.024 231.896 40.784 231.704 40.584C231.512 40.376 231.284 40.216 231.02 40.104C230.756 39.984 230.468 39.924 230.156 39.924C229.82 39.924 229.52 39.984 229.256 40.104C228.992 40.224 228.768 40.388 228.584 40.596C228.408 40.796 228.272 41.036 228.176 41.316C228.08 41.588 228.032 41.88 228.032 42.192ZM236.045 45H235.229V39.384H236.045V45ZM236.213 37.224C236.213 37.392 236.153 37.532 236.033 37.644C235.913 37.748 235.781 37.8 235.637 37.8C235.493 37.8 235.361 37.748 235.241 37.644C235.121 37.532 235.061 37.392 235.061 37.224C235.061 37.056 235.121 36.92 235.241 36.816C235.361 36.704 235.493 36.648 235.637 36.648C235.781 36.648 235.913 36.704 236.033 36.816C236.153 36.92 236.213 37.056 236.213 37.224ZM243.797 42.192C243.797 42.616 243.721 43.008 243.569 43.368C243.425 43.728 243.221 44.04 242.957 44.304C242.693 44.568 242.377 44.776 242.009 44.928C241.641 45.072 241.237 45.144 240.797 45.144C240.365 45.144 239.965 45.072 239.597 44.928C239.229 44.776 238.913 44.568 238.649 44.304C238.385 44.04 238.177 43.728 238.025 43.368C237.881 43.008 237.809 42.616 237.809 42.192C237.809 41.768 237.881 41.376 238.025 41.016C238.177 40.656 238.385 40.344 238.649 40.08C238.913 39.816 239.229 39.612 239.597 39.468C239.965 39.316 240.365 39.24 240.797 39.24C241.237 39.24 241.641 39.316 242.009 39.468C242.377 39.612 242.693 39.816 242.957 40.08C243.221 40.344 243.425 40.656 243.569 41.016C243.721 41.376 243.797 41.768 243.797 42.192ZM242.933 42.192C242.933 41.88 242.881 41.588 242.777 41.316C242.681 41.036 242.541 40.796 242.357 40.596C242.173 40.388 241.949 40.224 241.685 40.104C241.421 39.984 241.125 39.924 240.797 39.924C240.469 39.924 240.173 39.984 239.909 40.104C239.653 40.224 239.433 40.388 239.249 40.596C239.065 40.796 238.921 41.036 238.817 41.316C238.721 41.588 238.673 41.88 238.673 42.192C238.673 42.504 238.721 42.8 238.817 43.08C238.921 43.352 239.065 43.592 239.249 43.8C239.433 44 239.653 44.16 239.909 44.28C240.173 44.392 240.469 44.448 240.797 44.448C241.125 44.448 241.421 44.392 241.685 44.28C241.949 44.16 242.173 44 242.357 43.8C242.541 43.592 242.681 43.352 242.777 43.08C242.881 42.8 242.933 42.504 242.933 42.192ZM247.737 42.432H245.049V41.748H247.737V42.432ZM251.928 40.068H250.344V43.344C250.344 43.552 250.364 43.724 250.404 43.86C250.444 43.996 250.5 44.104 250.572 44.184C250.652 44.256 250.744 44.308 250.848 44.34C250.952 44.364 251.064 44.376 251.184 44.376C251.296 44.376 251.412 44.36 251.532 44.328C251.66 44.296 251.78 44.252 251.892 44.196L251.928 44.904C251.784 44.96 251.632 45 251.472 45.024C251.32 45.056 251.152 45.072 250.968 45.072C250.816 45.072 250.656 45.052 250.488 45.012C250.32 44.972 250.164 44.896 250.02 44.784C249.876 44.672 249.756 44.52 249.66 44.328C249.572 44.136 249.528 43.884 249.528 43.572V40.068H248.364V39.384H249.528V37.8H250.344V39.384H251.928V40.068ZM258.785 42.192C258.785 42.616 258.709 43.008 258.557 43.368C258.413 43.728 258.209 44.04 257.945 44.304C257.681 44.568 257.365 44.776 256.997 44.928C256.629 45.072 256.225 45.144 255.785 45.144C255.353 45.144 254.953 45.072 254.585 44.928C254.217 44.776 253.901 44.568 253.637 44.304C253.373 44.04 253.165 43.728 253.013 43.368C252.869 43.008 252.797 42.616 252.797 42.192C252.797 41.768 252.869 41.376 253.013 41.016C253.165 40.656 253.373 40.344 253.637 40.08C253.901 39.816 254.217 39.612 254.585 39.468C254.953 39.316 255.353 39.24 255.785 39.24C256.225 39.24 256.629 39.316 256.997 39.468C257.365 39.612 257.681 39.816 257.945 40.08C258.209 40.344 258.413 40.656 258.557 41.016C258.709 41.376 258.785 41.768 258.785 42.192ZM257.921 42.192C257.921 41.88 257.869 41.588 257.765 41.316C257.669 41.036 257.529 40.796 257.345 40.596C257.161 40.388 256.937 40.224 256.673 40.104C256.409 39.984 256.113 39.924 255.785 39.924C255.457 39.924 255.161 39.984 254.897 40.104C254.641 40.224 254.421 40.388 254.237 40.596C254.053 40.796 253.909 41.036 253.805 41.316C253.709 41.588 253.661 41.88 253.661 42.192C253.661 42.504 253.709 42.8 253.805 43.08C253.909 43.352 254.053 43.592 254.237 43.8C254.421 44 254.641 44.16 254.897 44.28C255.161 44.392 255.457 44.448 255.785 44.448C256.113 44.448 256.409 44.392 256.673 44.28C256.937 44.16 257.161 44 257.345 43.8C257.529 43.592 257.669 43.352 257.765 43.08C257.869 42.8 257.921 42.504 257.921 42.192ZM264.621 45C264.605 44.848 264.593 44.68 264.585 44.496C264.577 44.312 264.573 44.16 264.573 44.04H264.549C264.389 44.368 264.129 44.636 263.769 44.844C263.409 45.044 263.029 45.144 262.629 45.144C261.917 45.144 261.381 44.932 261.021 44.508C260.669 44.084 260.493 43.524 260.493 42.828V39.384H261.309V42.492C261.309 42.788 261.333 43.056 261.381 43.296C261.429 43.536 261.509 43.744 261.621 43.92C261.741 44.088 261.897 44.22 262.089 44.316C262.289 44.412 262.537 44.46 262.833 44.46C263.049 44.46 263.257 44.416 263.457 44.328C263.665 44.24 263.849 44.108 264.009 43.932C264.169 43.748 264.297 43.52 264.393 43.248C264.489 42.968 264.537 42.64 264.537 42.264V39.384H265.353V43.764C265.353 43.916 265.357 44.112 265.365 44.352C265.373 44.592 265.385 44.808 265.401 45H264.621ZM267.514 40.62C267.514 40.468 267.51 40.272 267.502 40.032C267.494 39.792 267.482 39.576 267.466 39.384H268.246C268.262 39.536 268.274 39.704 268.282 39.888C268.29 40.072 268.294 40.224 268.294 40.344H268.318C268.478 40.016 268.718 39.752 269.038 39.552C269.358 39.344 269.718 39.24 270.118 39.24C270.222 39.24 270.314 39.244 270.394 39.252C270.482 39.26 270.57 39.276 270.658 39.3L270.55 40.068C270.502 40.052 270.422 40.036 270.31 40.02C270.198 40.004 270.086 39.996 269.974 39.996C269.758 39.996 269.55 40.036 269.35 40.116C269.15 40.196 268.974 40.324 268.822 40.5C268.678 40.668 268.558 40.888 268.462 41.16C268.374 41.424 268.33 41.744 268.33 42.12V45H267.514V40.62ZM274.826 40.716C274.706 40.484 274.522 40.296 274.274 40.152C274.034 40 273.758 39.924 273.446 39.924C273.302 39.924 273.158 39.94 273.014 39.972C272.87 40.004 272.742 40.056 272.63 40.128C272.518 40.2 272.426 40.292 272.354 40.404C272.29 40.516 272.258 40.648 272.258 40.8C272.258 41.064 272.366 41.268 272.582 41.412C272.798 41.548 273.138 41.664 273.602 41.76C274.266 41.896 274.754 42.096 275.066 42.36C275.386 42.616 275.546 42.964 275.546 43.404C275.546 43.724 275.482 43.996 275.354 44.22C275.234 44.436 275.074 44.616 274.874 44.76C274.674 44.896 274.446 44.992 274.19 45.048C273.942 45.112 273.69 45.144 273.434 45.144C273.01 45.144 272.598 45.056 272.198 44.88C271.798 44.704 271.47 44.428 271.214 44.052L271.862 43.572C272.006 43.82 272.218 44.028 272.498 44.196C272.778 44.364 273.086 44.448 273.422 44.448C273.598 44.448 273.766 44.432 273.926 44.4C274.086 44.368 274.226 44.312 274.346 44.232C274.466 44.152 274.562 44.052 274.634 43.932C274.706 43.804 274.742 43.648 274.742 43.464C274.742 43.168 274.598 42.948 274.31 42.804C274.03 42.652 273.622 42.512 273.086 42.384C272.918 42.344 272.738 42.296 272.546 42.24C272.362 42.176 272.19 42.088 272.03 41.976C271.87 41.856 271.738 41.708 271.634 41.532C271.53 41.356 271.478 41.136 271.478 40.872C271.478 40.584 271.534 40.34 271.646 40.14C271.758 39.932 271.906 39.764 272.09 39.636C272.282 39.5 272.498 39.4 272.738 39.336C272.978 39.272 273.226 39.24 273.482 39.24C273.874 39.24 274.254 39.328 274.622 39.504C274.99 39.68 275.266 39.928 275.45 40.248L274.826 40.716ZM278.298 44.424C278.298 44.592 278.238 44.744 278.118 44.88C277.998 45.008 277.842 45.072 277.65 45.072C277.458 45.072 277.302 45.008 277.182 44.88C277.062 44.744 277.002 44.592 277.002 44.424C277.002 44.256 277.062 44.108 277.182 43.98C277.302 43.844 277.458 43.776 277.65 43.776C277.842 43.776 277.998 43.844 278.118 43.98C278.238 44.108 278.298 44.256 278.298 44.424Z" fill="#7686AF"/>
</svg>