<svg width="200" height="99" viewBox="0 0 200 99" fill="none" xmlns="http://www.w3.org/2000/svg">
    <path d="M91.7004 6.4283C96.6774 3.04675 103.206 3.03818 108.191 6.40663C108.828 5.40453 109.558 4.4653 110.372 3.60157L110.607 3.35388C104.203 -1.12815 95.6863 -1.11702 89.2942 3.38175L89.5567 3.6604C90.3553 4.51445 91.0729 5.44107 91.7004 6.4283Z" fill="#FFC774"/>
    <path fill-rule="evenodd" clip-rule="evenodd" d="M129.977 2.39719C130.023 2.41199 130.069 2.43063 130.113 2.45292C130.716 2.69299 131.304 2.9733 131.87 3.29196C131.348 4.37977 130.768 5.43908 130.134 6.46546C126.194 12.8189 120.261 17.6813 113.266 20.2895L113.226 20.305C114.301 28.9833 108.902 41.4203 101.137 47.4825L99.9412 48.4113L98.7489 47.4825C90.9806 41.4234 85.5907 28.9895 86.6563 20.3205H86.6378C79.6334 17.7146 73.6899 12.8525 69.739 6.49642C69.1025 5.47087 68.522 4.41148 68 3.32292C68.5615 2.99719 69.1458 2.71264 69.7483 2.4715C69.792 2.45024 69.8375 2.43264 69.8842 2.41886C70.4787 2.1813 71.0874 1.98071 71.7065 1.81822C72.9555 1.50091 74.2389 1.33972 75.5274 1.33833C82.384 1.33879 88.4032 5.91102 90.2578 12.5276C92.7835 9.8626 96.2911 8.35549 99.9582 8.35959C103.625 8.36368 107.13 9.87864 109.649 12.5493C111.894 4.52786 120.11 -0.237173 128.167 1.80893C128.782 1.96479 129.387 2.1613 129.977 2.39719ZM87.2123 16.3606C87.1242 12.9867 85.5887 9.81475 82.9992 7.65741C80.4098 5.50007 77.018 4.56691 73.6926 5.09698C77.0919 10.0154 81.7666 13.91 87.2123 16.3606ZM99.9474 43.4049L99.9443 43.4021C106.302 37.5497 110.776 26.2453 109.18 19.5403L109.065 19.1966V19.1285C107.894 15.0638 104.182 12.2656 99.9613 12.2656C95.7404 12.2656 92.0284 15.0638 90.8571 19.1285V19.1904L90.7335 19.5248C89.1091 26.2391 93.5707 37.5497 99.9443 43.4021L99.9412 43.4049H99.9474ZM112.71 16.3299C112.71 16.3308 112.71 16.3318 112.71 16.3327H112.704C112.706 16.3318 112.708 16.3308 112.71 16.3299ZM112.71 16.3299C118.129 13.8712 122.78 9.98466 126.168 5.0846C125.579 4.99227 124.983 4.94671 124.386 4.94837C118.063 4.95091 112.889 9.99467 112.71 16.3299Z" fill="#2A6CEB"/>
    <path d="M82.8015 24.1875C82.7574 23.3579 82.2751 22.6149 81.5362 22.2384C80.7974 21.862 79.9143 21.9092 79.2196 22.3623C78.525 22.8154 78.1242 23.6056 78.1683 24.4352C78.4062 28.875 79.2741 32.5005 80.9853 36.2003C81.3908 37.0776 82.2968 37.6106 83.2587 37.5378C83.5381 37.5187 83.8116 37.4473 84.0648 37.3273C84.625 37.0678 85.0587 36.595 85.2697 36.0138C85.4808 35.4325 85.4518 34.7909 85.1892 34.2312C83.7529 31.1042 83.0085 28.005 82.8015 24.1875Z" fill="#FFC774"/>
    <path d="M119.521 21.9769C118.242 21.9101 117.151 22.8934 117.081 24.1751C116.877 27.9926 116.139 31.0918 114.69 34.2157C114.429 34.7759 114.4 35.4175 114.612 35.9986C114.824 36.5796 115.257 37.0522 115.818 37.3118C116.071 37.4318 116.344 37.5032 116.624 37.5224C117.586 37.5952 118.492 37.0621 118.897 36.1848C120.608 32.4974 121.476 28.8719 121.714 24.4197C121.774 23.1408 120.796 22.0518 119.521 21.9769Z" fill="#FFC774"/>
    <path d="M66.5762 71H62.2922V61.874H59.1602V58.256H69.7082V61.874H66.5762V71ZM69.164 61.532H73.16V62.612H73.196C73.4 62.228 73.7 61.91 74.096 61.658C74.504 61.406 74.978 61.28 75.518 61.28C75.842 61.28 76.106 61.31 76.31 61.37L75.986 64.898C75.854 64.862 75.704 64.838 75.536 64.826C75.38 64.802 75.236 64.79 75.104 64.79C74.564 64.79 74.132 64.946 73.808 65.258C73.484 65.57 73.322 65.954 73.322 66.41V71H69.164V61.532ZM81.9212 67.076C81.3092 67.076 80.8172 67.142 80.4452 67.274C80.0732 67.406 79.8872 67.652 79.8872 68.012C79.8872 68.144 79.9172 68.258 79.9772 68.354C80.0372 68.438 80.1152 68.51 80.2112 68.57C80.3072 68.63 80.4092 68.678 80.5172 68.714C80.6372 68.738 80.7452 68.75 80.8412 68.75C81.2372 68.75 81.5552 68.624 81.7952 68.372C82.0352 68.12 82.1552 67.796 82.1552 67.4V67.076H81.9212ZM81.8852 64.988C81.8852 64.7 81.7832 64.49 81.5792 64.358C81.3872 64.214 81.1292 64.142 80.8052 64.142C80.4212 64.142 80.0552 64.226 79.7072 64.394C79.3712 64.55 79.0712 64.736 78.8072 64.952L76.7372 62.9C77.3132 62.348 77.9972 61.922 78.7892 61.622C79.5812 61.322 80.3972 61.172 81.2372 61.172C82.1372 61.172 82.8812 61.298 83.4692 61.55C84.0572 61.802 84.5192 62.15 84.8552 62.594C85.2032 63.038 85.4432 63.554 85.5752 64.142C85.7192 64.73 85.7912 65.354 85.7912 66.014V71H82.0292V70.244H81.9932C81.7532 70.604 81.4112 70.862 80.9672 71.018C80.5232 71.174 80.0912 71.252 79.6712 71.252C79.2992 71.252 78.9152 71.198 78.5192 71.09C78.1352 70.982 77.7812 70.808 77.4572 70.568C77.1452 70.328 76.8872 70.016 76.6832 69.632C76.4792 69.248 76.3772 68.774 76.3772 68.21C76.3772 67.55 76.5452 67.016 76.8812 66.608C77.2292 66.188 77.6672 65.864 78.1952 65.636C78.7232 65.396 79.3112 65.234 79.9592 65.15C80.6192 65.066 81.2612 65.024 81.8852 65.024V64.988ZM86.3999 61.532H91.0079L92.3579 66.644H92.4299L93.7259 61.532H98.1719L94.5179 71H89.9999L86.3999 61.532ZM105.276 65.006C105.276 64.67 105.15 64.394 104.898 64.178C104.658 63.962 104.328 63.854 103.908 63.854C103.452 63.854 103.098 63.98 102.846 64.232C102.594 64.484 102.45 64.742 102.414 65.006H105.276ZM108.858 66.356C108.858 66.512 108.852 66.674 108.84 66.842C108.84 66.998 108.834 67.13 108.822 67.238H102.45C102.462 67.406 102.516 67.556 102.612 67.688C102.72 67.82 102.846 67.934 102.99 68.03C103.146 68.126 103.314 68.198 103.494 68.246C103.686 68.294 103.878 68.318 104.07 68.318C104.454 68.318 104.772 68.252 105.024 68.12C105.288 67.976 105.486 67.82 105.618 67.652L108.57 69.146C108.15 69.83 107.538 70.37 106.734 70.766C105.942 71.162 105.018 71.36 103.962 71.36C103.278 71.36 102.612 71.252 101.964 71.036C101.316 70.82 100.74 70.502 100.236 70.082C99.7445 69.65 99.3485 69.116 99.0485 68.48C98.7485 67.844 98.5985 67.106 98.5985 66.266C98.5985 65.486 98.7365 64.784 99.0125 64.16C99.2885 63.524 99.6605 62.99 100.128 62.558C100.608 62.114 101.166 61.772 101.802 61.532C102.45 61.292 103.14 61.172 103.872 61.172C104.616 61.172 105.294 61.304 105.906 61.568C106.518 61.82 107.04 62.18 107.472 62.648C107.916 63.104 108.258 63.65 108.498 64.286C108.738 64.922 108.858 65.612 108.858 66.356ZM110.314 61.532H114.31V62.612H114.346C114.55 62.228 114.85 61.91 115.246 61.658C115.654 61.406 116.128 61.28 116.668 61.28C116.992 61.28 117.256 61.31 117.46 61.37L117.136 64.898C117.004 64.862 116.854 64.838 116.686 64.826C116.53 64.802 116.386 64.79 116.254 64.79C115.714 64.79 115.282 64.946 114.958 65.258C114.634 65.57 114.472 65.954 114.472 66.41V71H110.314V61.532ZM128.436 66.23C128.436 67.046 128.286 67.772 127.986 68.408C127.698 69.044 127.302 69.584 126.798 70.028C126.306 70.46 125.73 70.79 125.07 71.018C124.422 71.246 123.738 71.36 123.018 71.36C122.31 71.36 121.626 71.246 120.966 71.018C120.318 70.79 119.748 70.46 119.256 70.028C118.764 69.584 118.368 69.044 118.068 68.408C117.78 67.772 117.636 67.046 117.636 66.23C117.636 65.426 117.78 64.712 118.068 64.088C118.368 63.452 118.764 62.918 119.256 62.486C119.748 62.054 120.318 61.73 120.966 61.514C121.626 61.286 122.31 61.172 123.018 61.172C123.738 61.172 124.422 61.286 125.07 61.514C125.73 61.73 126.306 62.054 126.798 62.486C127.302 62.918 127.698 63.452 127.986 64.088C128.286 64.712 128.436 65.426 128.436 66.23ZM123.018 64.664C122.562 64.664 122.19 64.82 121.902 65.132C121.626 65.444 121.488 65.81 121.488 66.23C121.488 66.674 121.632 67.052 121.92 67.364C122.208 67.676 122.58 67.832 123.036 67.832C123.492 67.832 123.864 67.676 124.152 67.364C124.44 67.052 124.584 66.674 124.584 66.23C124.584 65.81 124.434 65.444 124.134 65.132C123.846 64.82 123.474 64.664 123.018 64.664ZM140.389 66.23C140.389 67.046 140.239 67.772 139.939 68.408C139.651 69.044 139.255 69.584 138.751 70.028C138.259 70.46 137.683 70.79 137.023 71.018C136.375 71.246 135.691 71.36 134.971 71.36C134.263 71.36 133.579 71.246 132.919 71.018C132.271 70.79 131.701 70.46 131.209 70.028C130.717 69.584 130.321 69.044 130.021 68.408C129.733 67.772 129.589 67.046 129.589 66.23C129.589 65.426 129.733 64.712 130.021 64.088C130.321 63.452 130.717 62.918 131.209 62.486C131.701 62.054 132.271 61.73 132.919 61.514C133.579 61.286 134.263 61.172 134.971 61.172C135.691 61.172 136.375 61.286 137.023 61.514C137.683 61.73 138.259 62.054 138.751 62.486C139.255 62.918 139.651 63.452 139.939 64.088C140.239 64.712 140.389 65.426 140.389 66.23ZM134.971 64.664C134.515 64.664 134.143 64.82 133.855 65.132C133.579 65.444 133.441 65.81 133.441 66.23C133.441 66.674 133.585 67.052 133.873 67.364C134.161 67.676 134.533 67.832 134.989 67.832C135.445 67.832 135.817 67.676 136.105 67.364C136.393 67.052 136.537 66.674 136.537 66.23C136.537 65.81 136.387 65.444 136.087 65.132C135.799 64.82 135.427 64.664 134.971 64.664Z" fill="#071F44"/>
    <path d="M9.528 90.752C9.528 91.4 9.416 91.996 9.192 92.54C8.968 93.084 8.656 93.556 8.256 93.956C7.864 94.348 7.396 94.656 6.852 94.88C6.316 95.104 5.732 95.216 5.1 95.216C4.468 95.216 3.88 95.104 3.336 94.88C2.8 94.656 2.332 94.348 1.932 93.956C1.54 93.556 1.232 93.084 1.008 92.54C0.784 91.996 0.672 91.4 0.672 90.752C0.672 90.104 0.784 89.508 1.008 88.964C1.232 88.42 1.54 87.952 1.932 87.56C2.332 87.16 2.8 86.848 3.336 86.624C3.88 86.4 4.468 86.288 5.1 86.288C5.732 86.288 6.316 86.4 6.852 86.624C7.396 86.848 7.864 87.16 8.256 87.56C8.656 87.952 8.968 88.42 9.192 88.964C9.416 89.508 9.528 90.104 9.528 90.752ZM8.616 90.752C8.616 90.256 8.536 89.784 8.376 89.336C8.216 88.888 7.984 88.496 7.68 88.16C7.376 87.816 7.004 87.544 6.564 87.344C6.132 87.144 5.644 87.044 5.1 87.044C4.556 87.044 4.064 87.144 3.624 87.344C3.192 87.544 2.824 87.816 2.52 88.16C2.216 88.496 1.984 88.888 1.824 89.336C1.664 89.784 1.584 90.256 1.584 90.752C1.584 91.248 1.664 91.72 1.824 92.168C1.984 92.616 2.216 93.008 2.52 93.344C2.824 93.68 3.192 93.948 3.624 94.148C4.064 94.348 4.556 94.448 5.1 94.448C5.644 94.448 6.132 94.348 6.564 94.148C7.004 93.948 7.376 93.68 7.68 93.344C7.984 93.008 8.216 92.616 8.376 92.168C8.536 91.72 8.616 91.248 8.616 90.752ZM12.0073 89.384C12.0233 89.536 12.0353 89.704 12.0433 89.888C12.0513 90.072 12.0553 90.224 12.0553 90.344H12.0793C12.2393 90.016 12.4993 89.752 12.8593 89.552C13.2193 89.344 13.5993 89.24 13.9993 89.24C14.7113 89.24 15.2433 89.452 15.5953 89.876C15.9553 90.3 16.1353 90.86 16.1353 91.556V95H15.3193V91.892C15.3193 91.596 15.2953 91.328 15.2473 91.088C15.1993 90.848 15.1153 90.644 14.9953 90.476C14.8833 90.3 14.7273 90.164 14.5273 90.068C14.3353 89.972 14.0913 89.924 13.7953 89.924C13.5793 89.924 13.3673 89.968 13.1593 90.056C12.9593 90.144 12.7793 90.28 12.6193 90.464C12.4593 90.64 12.3313 90.868 12.2353 91.148C12.1393 91.42 12.0913 91.744 12.0913 92.12V95H11.2753V90.62C11.2753 90.468 11.2713 90.272 11.2633 90.032C11.2553 89.792 11.2433 89.576 11.2273 89.384H12.0073ZM20.432 92.432H17.744V91.748H20.432V92.432ZM26.7117 94.052C26.4717 94.412 26.1597 94.684 25.7757 94.868C25.3917 95.052 24.9957 95.144 24.5877 95.144C24.1477 95.144 23.7477 95.068 23.3877 94.916C23.0357 94.764 22.7317 94.556 22.4757 94.292C22.2277 94.028 22.0317 93.716 21.8877 93.356C21.7517 92.996 21.6837 92.608 21.6837 92.192C21.6837 91.776 21.7517 91.388 21.8877 91.028C22.0317 90.668 22.2277 90.356 22.4757 90.092C22.7317 89.828 23.0357 89.62 23.3877 89.468C23.7477 89.316 24.1477 89.24 24.5877 89.24C24.9957 89.24 25.3917 89.336 25.7757 89.528C26.1597 89.712 26.4717 89.988 26.7117 90.356H26.7357V85.928H27.5517V95H26.7357V94.052H26.7117ZM22.5477 92.192C22.5477 92.504 22.5957 92.8 22.6917 93.08C22.7877 93.352 22.9237 93.592 23.0997 93.8C23.2837 94 23.5077 94.16 23.7717 94.28C24.0357 94.392 24.3357 94.448 24.6717 94.448C24.9837 94.448 25.2717 94.392 25.5357 94.28C25.7997 94.16 26.0277 94 26.2197 93.8C26.4117 93.6 26.5597 93.364 26.6637 93.092C26.7757 92.812 26.8317 92.512 26.8317 92.192C26.8317 91.872 26.7757 91.576 26.6637 91.304C26.5597 91.024 26.4117 90.784 26.2197 90.584C26.0277 90.376 25.7997 90.216 25.5357 90.104C25.2717 89.984 24.9837 89.924 24.6717 89.924C24.3357 89.924 24.0357 89.984 23.7717 90.104C23.5077 90.224 23.2837 90.388 23.0997 90.596C22.9237 90.796 22.7877 91.036 22.6917 91.316C22.5957 91.588 22.5477 91.88 22.5477 92.192ZM34.0163 91.76C33.9923 91.232 33.8203 90.796 33.5003 90.452C33.1883 90.1 32.7403 89.924 32.1563 89.924C31.8843 89.924 31.6323 89.976 31.4003 90.08C31.1683 90.176 30.9643 90.312 30.7883 90.488C30.6123 90.656 30.4723 90.852 30.3683 91.076C30.2643 91.292 30.2043 91.52 30.1883 91.76H34.0163ZM34.8443 92.024C34.8443 92.08 34.8443 92.14 34.8443 92.204C34.8443 92.268 34.8403 92.336 34.8323 92.408H30.1763C30.1843 92.688 30.2403 92.952 30.3443 93.2C30.4483 93.448 30.5923 93.664 30.7763 93.848C30.9603 94.032 31.1763 94.18 31.4243 94.292C31.6723 94.396 31.9403 94.448 32.2283 94.448C32.6523 94.448 33.0163 94.352 33.3203 94.16C33.6323 93.96 33.8683 93.732 34.0283 93.476L34.6403 93.956C34.3043 94.38 33.9323 94.684 33.5243 94.868C33.1243 95.052 32.6923 95.144 32.2283 95.144C31.8123 95.144 31.4243 95.072 31.0643 94.928C30.7123 94.776 30.4083 94.568 30.1523 94.304C29.8963 94.04 29.6923 93.728 29.5403 93.368C29.3963 93.008 29.3243 92.616 29.3243 92.192C29.3243 91.768 29.3963 91.376 29.5403 91.016C29.6843 90.656 29.8843 90.344 30.1403 90.08C30.3963 89.816 30.6963 89.612 31.0403 89.468C31.3843 89.316 31.7563 89.24 32.1563 89.24C32.5963 89.24 32.9843 89.316 33.3203 89.468C33.6563 89.612 33.9363 89.812 34.1603 90.068C34.3843 90.316 34.5523 90.608 34.6643 90.944C34.7843 91.28 34.8443 91.64 34.8443 92.024ZM37.4035 90.344C37.5635 90.016 37.8075 89.752 38.1355 89.552C38.4715 89.344 38.8435 89.24 39.2515 89.24C39.4035 89.24 39.5595 89.256 39.7195 89.288C39.8875 89.32 40.0475 89.384 40.1995 89.48C40.3595 89.568 40.5035 89.688 40.6315 89.84C40.7675 89.992 40.8835 90.188 40.9795 90.428C41.1715 90.044 41.4315 89.752 41.7595 89.552C42.0955 89.344 42.4915 89.24 42.9475 89.24C43.6595 89.24 44.1915 89.452 44.5435 89.876C44.9035 90.3 45.0835 90.86 45.0835 91.556V95H44.2675V91.892C44.2675 91.3 44.1555 90.824 43.9315 90.464C43.7155 90.104 43.3435 89.924 42.8155 89.924C42.5195 89.924 42.2675 89.984 42.0595 90.104C41.8595 90.224 41.6955 90.384 41.5675 90.584C41.4475 90.776 41.3595 90.996 41.3035 91.244C41.2475 91.492 41.2195 91.748 41.2195 92.012V95H40.4035V91.724C40.4035 91.452 40.3835 91.204 40.3435 90.98C40.3035 90.756 40.2315 90.568 40.1275 90.416C40.0315 90.256 39.8955 90.136 39.7195 90.056C39.5435 89.968 39.3195 89.924 39.0475 89.924C38.8555 89.924 38.6595 89.968 38.4595 90.056C38.2675 90.144 38.0915 90.28 37.9315 90.464C37.7795 90.64 37.6555 90.868 37.5595 91.148C37.4635 91.42 37.4155 91.744 37.4155 92.12V95H36.5995V90.62C36.5995 90.468 36.5955 90.272 36.5875 90.032C36.5795 89.792 36.5675 89.576 36.5515 89.384H37.3315C37.3475 89.536 37.3595 89.704 37.3675 89.888C37.3755 90.072 37.3795 90.224 37.3795 90.344H37.4035ZM50.7333 91.376C50.7333 90.888 50.6053 90.524 50.3493 90.284C50.0933 90.044 49.7213 89.924 49.2333 89.924C48.8973 89.924 48.5853 89.984 48.2973 90.104C48.0093 90.224 47.7653 90.384 47.5653 90.584L47.1093 90.044C47.3413 89.812 47.6453 89.62 48.0213 89.468C48.4053 89.316 48.8373 89.24 49.3173 89.24C49.6213 89.24 49.9053 89.284 50.1693 89.372C50.4333 89.452 50.6653 89.576 50.8653 89.744C51.0653 89.912 51.2213 90.124 51.3333 90.38C51.4453 90.636 51.5013 90.936 51.5013 91.28V93.74C51.5013 93.956 51.5093 94.18 51.5253 94.412C51.5413 94.644 51.5653 94.84 51.5973 95H50.8653C50.8413 94.864 50.8213 94.716 50.8053 94.556C50.7893 94.396 50.7813 94.24 50.7813 94.088H50.7573C50.5013 94.464 50.2093 94.736 49.8813 94.904C49.5613 95.064 49.1733 95.144 48.7173 95.144C48.5013 95.144 48.2773 95.112 48.0453 95.048C47.8213 94.992 47.6133 94.896 47.4213 94.76C47.2373 94.624 47.0813 94.448 46.9533 94.232C46.8333 94.016 46.7733 93.752 46.7733 93.44C46.7733 93.008 46.8813 92.668 47.0973 92.42C47.3213 92.164 47.6173 91.976 47.9853 91.856C48.3533 91.728 48.7733 91.648 49.2453 91.616C49.7253 91.576 50.2213 91.556 50.7333 91.556V91.376ZM50.4933 92.192C50.1573 92.192 49.8173 92.208 49.4733 92.24C49.1373 92.264 48.8293 92.32 48.5493 92.408C48.2773 92.488 48.0533 92.608 47.8773 92.768C47.7013 92.928 47.6133 93.14 47.6133 93.404C47.6133 93.604 47.6493 93.772 47.7213 93.908C47.8013 94.044 47.9053 94.156 48.0333 94.244C48.1613 94.324 48.3013 94.384 48.4533 94.424C48.6133 94.456 48.7733 94.472 48.9333 94.472C49.2213 94.472 49.4773 94.424 49.7013 94.328C49.9253 94.224 50.1133 94.088 50.2653 93.92C50.4173 93.744 50.5333 93.544 50.6133 93.32C50.6933 93.096 50.7333 92.86 50.7333 92.612V92.192H50.4933ZM54.3354 89.384C54.3514 89.536 54.3634 89.704 54.3714 89.888C54.3794 90.072 54.3834 90.224 54.3834 90.344H54.4074C54.5674 90.016 54.8274 89.752 55.1874 89.552C55.5474 89.344 55.9274 89.24 56.3274 89.24C57.0394 89.24 57.5714 89.452 57.9234 89.876C58.2834 90.3 58.4634 90.86 58.4634 91.556V95H57.6474V91.892C57.6474 91.596 57.6234 91.328 57.5754 91.088C57.5274 90.848 57.4434 90.644 57.3234 90.476C57.2114 90.3 57.0554 90.164 56.8554 90.068C56.6634 89.972 56.4194 89.924 56.1234 89.924C55.9074 89.924 55.6954 89.968 55.4874 90.056C55.2874 90.144 55.1074 90.28 54.9474 90.464C54.7874 90.64 54.6594 90.868 54.5634 91.148C54.4674 91.42 54.4194 91.744 54.4194 92.12V95H53.6034V90.62C53.6034 90.468 53.5994 90.272 53.5914 90.032C53.5834 89.792 53.5714 89.576 53.5554 89.384H54.3354ZM65.1961 94.052C64.9561 94.412 64.6441 94.684 64.2601 94.868C63.8761 95.052 63.4801 95.144 63.0721 95.144C62.6321 95.144 62.2321 95.068 61.8721 94.916C61.5201 94.764 61.2161 94.556 60.9601 94.292C60.7121 94.028 60.5161 93.716 60.3721 93.356C60.2361 92.996 60.1681 92.608 60.1681 92.192C60.1681 91.776 60.2361 91.388 60.3721 91.028C60.5161 90.668 60.7121 90.356 60.9601 90.092C61.2161 89.828 61.5201 89.62 61.8721 89.468C62.2321 89.316 62.6321 89.24 63.0721 89.24C63.4801 89.24 63.8761 89.336 64.2601 89.528C64.6441 89.712 64.9561 89.988 65.1961 90.356H65.2201V85.928H66.0361V95H65.2201V94.052H65.1961ZM61.0321 92.192C61.0321 92.504 61.0801 92.8 61.1761 93.08C61.2721 93.352 61.4081 93.592 61.5841 93.8C61.7681 94 61.9921 94.16 62.2561 94.28C62.5201 94.392 62.8201 94.448 63.1561 94.448C63.4681 94.448 63.7561 94.392 64.0201 94.28C64.2841 94.16 64.5121 94 64.7041 93.8C64.8961 93.6 65.0441 93.364 65.1481 93.092C65.2601 92.812 65.3161 92.512 65.3161 92.192C65.3161 91.872 65.2601 91.576 65.1481 91.304C65.0441 91.024 64.8961 90.784 64.7041 90.584C64.5121 90.376 64.2841 90.216 64.0201 90.104C63.7561 89.984 63.4681 89.924 63.1561 89.924C62.8201 89.924 62.5201 89.984 62.2561 90.104C61.9921 90.224 61.7681 90.388 61.5841 90.596C61.4081 90.796 61.2721 91.036 61.1761 91.316C61.0801 91.588 61.0321 91.88 61.0321 92.192ZM77.7087 88.028C77.4127 87.716 77.0607 87.476 76.6527 87.308C76.2447 87.132 75.7767 87.044 75.2487 87.044C74.7047 87.044 74.2127 87.144 73.7727 87.344C73.3407 87.544 72.9727 87.816 72.6687 88.16C72.3647 88.496 72.1287 88.888 71.9607 89.336C71.8007 89.784 71.7207 90.256 71.7207 90.752C71.7207 91.248 71.8007 91.72 71.9607 92.168C72.1287 92.616 72.3647 93.008 72.6687 93.344C72.9727 93.68 73.3407 93.948 73.7727 94.148C74.2127 94.348 74.7047 94.448 75.2487 94.448C75.7287 94.448 76.1687 94.396 76.5687 94.292C76.9687 94.188 77.2927 94.056 77.5407 93.896V91.316H75.5607V90.56H78.4047V94.388C77.9407 94.668 77.4407 94.876 76.9047 95.012C76.3687 95.148 75.8127 95.216 75.2367 95.216C74.5967 95.216 74.0047 95.104 73.4607 94.88C72.9167 94.656 72.4487 94.348 72.0567 93.956C71.6647 93.556 71.3567 93.084 71.1327 92.54C70.9167 91.996 70.8087 91.4 70.8087 90.752C70.8087 90.104 70.9207 89.508 71.1447 88.964C71.3687 88.42 71.6767 87.952 72.0687 87.56C72.4687 87.16 72.9367 86.848 73.4727 86.624C74.0167 86.4 74.6047 86.288 75.2367 86.288C75.9167 86.288 76.5087 86.388 77.0127 86.588C77.5167 86.788 77.9487 87.068 78.3087 87.428L77.7087 88.028ZM80.6163 86.504H83.0163C83.4483 86.504 83.8403 86.552 84.1923 86.648C84.5443 86.736 84.8443 86.876 85.0923 87.068C85.3483 87.252 85.5443 87.488 85.6803 87.776C85.8163 88.056 85.8843 88.388 85.8843 88.772C85.8843 89.156 85.8123 89.492 85.6683 89.78C85.5323 90.06 85.3363 90.296 85.0803 90.488C84.8323 90.672 84.5283 90.812 84.1683 90.908C83.8163 91.004 83.4243 91.052 82.9923 91.052H81.4803V95H80.6163V86.504ZM81.4803 90.32H82.9443C83.6243 90.32 84.1403 90.188 84.4923 89.924C84.8443 89.66 85.0203 89.276 85.0203 88.772C85.0203 88.244 84.8363 87.86 84.4683 87.62C84.1083 87.372 83.6003 87.248 82.9443 87.248H81.4803V90.32ZM91.6932 87.872C91.5092 87.616 91.2732 87.412 90.9852 87.26C90.6972 87.1 90.3492 87.02 89.9412 87.02C89.7332 87.02 89.5212 87.052 89.3052 87.116C89.0892 87.18 88.8932 87.28 88.7172 87.416C88.5412 87.544 88.3972 87.708 88.2852 87.908C88.1812 88.108 88.1292 88.344 88.1292 88.616C88.1292 88.888 88.1812 89.112 88.2852 89.288C88.3892 89.464 88.5252 89.616 88.6932 89.744C88.8692 89.864 89.0652 89.964 89.2812 90.044C89.5052 90.124 89.7372 90.204 89.9772 90.284C90.2732 90.38 90.5692 90.484 90.8652 90.596C91.1692 90.708 91.4412 90.856 91.6812 91.04C91.9212 91.216 92.1172 91.444 92.2692 91.724C92.4212 91.996 92.4972 92.344 92.4972 92.768C92.4972 93.192 92.4132 93.56 92.2452 93.872C92.0852 94.176 91.8732 94.428 91.6092 94.628C91.3532 94.828 91.0572 94.976 90.7212 95.072C90.3932 95.168 90.0612 95.216 89.7252 95.216C89.4692 95.216 89.2132 95.188 88.9572 95.132C88.7012 95.084 88.4572 95.008 88.2252 94.904C87.9932 94.8 87.7772 94.668 87.5772 94.508C87.3772 94.348 87.2012 94.164 87.0492 93.956L87.7932 93.404C87.9772 93.708 88.2332 93.964 88.5612 94.172C88.8972 94.372 89.2892 94.472 89.7372 94.472C89.9532 94.472 90.1732 94.44 90.3972 94.376C90.6212 94.304 90.8212 94.2 90.9972 94.064C91.1812 93.92 91.3292 93.748 91.4412 93.548C91.5612 93.34 91.6212 93.1 91.6212 92.828C91.6212 92.532 91.5612 92.288 91.4412 92.096C91.3292 91.896 91.1772 91.732 90.9852 91.604C90.7932 91.468 90.5732 91.356 90.3252 91.268C90.0772 91.18 89.8172 91.092 89.5452 91.004C89.2652 90.916 88.9892 90.816 88.7172 90.704C88.4452 90.592 88.2012 90.448 87.9852 90.272C87.7692 90.088 87.5932 89.864 87.4572 89.6C87.3292 89.336 87.2652 89.012 87.2652 88.628C87.2652 88.22 87.3452 87.868 87.5052 87.572C87.6732 87.276 87.8892 87.032 88.1532 86.84C88.4172 86.648 88.7092 86.508 89.0292 86.42C89.3492 86.332 89.6652 86.288 89.9772 86.288C90.5532 86.288 91.0452 86.392 91.4532 86.6C91.8612 86.8 92.1692 87.04 92.3772 87.32L91.6932 87.872ZM98.1427 94.052V95H97.3267V85.928H98.1427V90.356H98.1667C98.4067 89.988 98.7187 89.712 99.1027 89.528C99.4867 89.336 99.8827 89.24 100.291 89.24C100.731 89.24 101.127 89.316 101.479 89.468C101.839 89.62 102.143 89.828 102.391 90.092C102.647 90.356 102.843 90.668 102.979 91.028C103.123 91.388 103.195 91.776 103.195 92.192C103.195 92.608 103.123 92.996 102.979 93.356C102.843 93.716 102.647 94.028 102.391 94.292C102.143 94.556 101.839 94.764 101.479 94.916C101.127 95.068 100.731 95.144 100.291 95.144C99.8827 95.144 99.4867 95.052 99.1027 94.868C98.7187 94.684 98.4067 94.412 98.1667 94.052H98.1427ZM102.331 92.192C102.331 91.88 102.283 91.588 102.187 91.316C102.091 91.036 101.951 90.796 101.767 90.596C101.591 90.388 101.371 90.224 101.107 90.104C100.843 89.984 100.543 89.924 100.207 89.924C99.8947 89.924 99.6067 89.984 99.3427 90.104C99.0787 90.216 98.8507 90.376 98.6587 90.584C98.4667 90.784 98.3147 91.024 98.2027 91.304C98.0987 91.576 98.0467 91.872 98.0467 92.192C98.0467 92.512 98.0987 92.812 98.2027 93.092C98.3147 93.364 98.4667 93.6 98.6587 93.8C98.8507 94 99.0787 94.16 99.3427 94.28C99.6067 94.392 99.8947 94.448 100.207 94.448C100.543 94.448 100.843 94.392 101.107 94.28C101.371 94.16 101.591 94 101.767 93.8C101.951 93.592 102.091 93.352 102.187 93.08C102.283 92.8 102.331 92.504 102.331 92.192ZM108.483 91.376C108.483 90.888 108.355 90.524 108.099 90.284C107.843 90.044 107.471 89.924 106.983 89.924C106.647 89.924 106.335 89.984 106.047 90.104C105.759 90.224 105.515 90.384 105.315 90.584L104.859 90.044C105.091 89.812 105.395 89.62 105.771 89.468C106.155 89.316 106.587 89.24 107.067 89.24C107.371 89.24 107.655 89.284 107.919 89.372C108.183 89.452 108.415 89.576 108.615 89.744C108.815 89.912 108.971 90.124 109.083 90.38C109.195 90.636 109.251 90.936 109.251 91.28V93.74C109.251 93.956 109.259 94.18 109.275 94.412C109.291 94.644 109.315 94.84 109.347 95H108.615C108.591 94.864 108.571 94.716 108.555 94.556C108.539 94.396 108.531 94.24 108.531 94.088H108.507C108.251 94.464 107.959 94.736 107.631 94.904C107.311 95.064 106.923 95.144 106.467 95.144C106.251 95.144 106.027 95.112 105.795 95.048C105.571 94.992 105.363 94.896 105.171 94.76C104.987 94.624 104.831 94.448 104.703 94.232C104.583 94.016 104.523 93.752 104.523 93.44C104.523 93.008 104.631 92.668 104.847 92.42C105.071 92.164 105.367 91.976 105.735 91.856C106.103 91.728 106.523 91.648 106.995 91.616C107.475 91.576 107.971 91.556 108.483 91.556V91.376ZM108.243 92.192C107.907 92.192 107.567 92.208 107.223 92.24C106.887 92.264 106.579 92.32 106.299 92.408C106.027 92.488 105.803 92.608 105.627 92.768C105.451 92.928 105.363 93.14 105.363 93.404C105.363 93.604 105.399 93.772 105.471 93.908C105.551 94.044 105.655 94.156 105.783 94.244C105.911 94.324 106.051 94.384 106.203 94.424C106.363 94.456 106.523 94.472 106.683 94.472C106.971 94.472 107.227 94.424 107.451 94.328C107.675 94.224 107.863 94.088 108.015 93.92C108.167 93.744 108.283 93.544 108.363 93.32C108.443 93.096 108.483 92.86 108.483 92.612V92.192H108.243ZM114.341 90.716C114.221 90.484 114.037 90.296 113.789 90.152C113.549 90 113.273 89.924 112.961 89.924C112.817 89.924 112.673 89.94 112.529 89.972C112.385 90.004 112.257 90.056 112.145 90.128C112.033 90.2 111.941 90.292 111.869 90.404C111.805 90.516 111.773 90.648 111.773 90.8C111.773 91.064 111.881 91.268 112.097 91.412C112.313 91.548 112.653 91.664 113.117 91.76C113.781 91.896 114.269 92.096 114.581 92.36C114.901 92.616 115.061 92.964 115.061 93.404C115.061 93.724 114.997 93.996 114.869 94.22C114.749 94.436 114.589 94.616 114.389 94.76C114.189 94.896 113.961 94.992 113.705 95.048C113.457 95.112 113.205 95.144 112.949 95.144C112.525 95.144 112.113 95.056 111.713 94.88C111.313 94.704 110.985 94.428 110.729 94.052L111.377 93.572C111.521 93.82 111.733 94.028 112.013 94.196C112.293 94.364 112.601 94.448 112.937 94.448C113.113 94.448 113.281 94.432 113.441 94.4C113.601 94.368 113.741 94.312 113.861 94.232C113.981 94.152 114.077 94.052 114.149 93.932C114.221 93.804 114.257 93.648 114.257 93.464C114.257 93.168 114.113 92.948 113.825 92.804C113.545 92.652 113.137 92.512 112.601 92.384C112.433 92.344 112.253 92.296 112.061 92.24C111.877 92.176 111.705 92.088 111.545 91.976C111.385 91.856 111.253 91.708 111.149 91.532C111.045 91.356 110.993 91.136 110.993 90.872C110.993 90.584 111.049 90.34 111.161 90.14C111.273 89.932 111.421 89.764 111.605 89.636C111.797 89.5 112.013 89.4 112.253 89.336C112.493 89.272 112.741 89.24 112.997 89.24C113.389 89.24 113.769 89.328 114.137 89.504C114.505 89.68 114.781 89.928 114.965 90.248L114.341 90.716ZM120.969 91.76C120.945 91.232 120.773 90.796 120.453 90.452C120.141 90.1 119.693 89.924 119.109 89.924C118.837 89.924 118.585 89.976 118.353 90.08C118.121 90.176 117.917 90.312 117.741 90.488C117.565 90.656 117.425 90.852 117.321 91.076C117.217 91.292 117.157 91.52 117.141 91.76H120.969ZM121.797 92.024C121.797 92.08 121.797 92.14 121.797 92.204C121.797 92.268 121.793 92.336 121.785 92.408H117.129C117.137 92.688 117.193 92.952 117.297 93.2C117.401 93.448 117.545 93.664 117.729 93.848C117.913 94.032 118.129 94.18 118.377 94.292C118.625 94.396 118.893 94.448 119.181 94.448C119.605 94.448 119.969 94.352 120.273 94.16C120.585 93.96 120.821 93.732 120.981 93.476L121.593 93.956C121.257 94.38 120.885 94.684 120.477 94.868C120.077 95.052 119.645 95.144 119.181 95.144C118.765 95.144 118.377 95.072 118.017 94.928C117.665 94.776 117.361 94.568 117.105 94.304C116.849 94.04 116.645 93.728 116.493 93.368C116.349 93.008 116.277 92.616 116.277 92.192C116.277 91.768 116.349 91.376 116.493 91.016C116.637 90.656 116.837 90.344 117.093 90.08C117.349 89.816 117.649 89.612 117.993 89.468C118.337 89.316 118.709 89.24 119.109 89.24C119.549 89.24 119.937 89.316 120.273 89.468C120.609 89.612 120.889 89.812 121.113 90.068C121.337 90.316 121.505 90.608 121.617 90.944C121.737 91.28 121.797 91.64 121.797 92.024ZM128.173 94.052C127.933 94.412 127.621 94.684 127.237 94.868C126.853 95.052 126.457 95.144 126.049 95.144C125.609 95.144 125.209 95.068 124.849 94.916C124.497 94.764 124.193 94.556 123.937 94.292C123.689 94.028 123.493 93.716 123.349 93.356C123.213 92.996 123.145 92.608 123.145 92.192C123.145 91.776 123.213 91.388 123.349 91.028C123.493 90.668 123.689 90.356 123.937 90.092C124.193 89.828 124.497 89.62 124.849 89.468C125.209 89.316 125.609 89.24 126.049 89.24C126.457 89.24 126.853 89.336 127.237 89.528C127.621 89.712 127.933 89.988 128.173 90.356H128.197V85.928H129.013V95H128.197V94.052H128.173ZM124.009 92.192C124.009 92.504 124.057 92.8 124.153 93.08C124.249 93.352 124.385 93.592 124.561 93.8C124.745 94 124.969 94.16 125.233 94.28C125.497 94.392 125.797 94.448 126.133 94.448C126.445 94.448 126.733 94.392 126.997 94.28C127.261 94.16 127.489 94 127.681 93.8C127.873 93.6 128.021 93.364 128.125 93.092C128.237 92.812 128.293 92.512 128.293 92.192C128.293 91.872 128.237 91.576 128.125 91.304C128.021 91.024 127.873 90.784 127.681 90.584C127.489 90.376 127.261 90.216 126.997 90.104C126.733 89.984 126.445 89.924 126.133 89.924C125.797 89.924 125.497 89.984 125.233 90.104C124.969 90.224 124.745 90.388 124.561 90.596C124.385 90.796 124.249 91.036 124.153 91.316C124.057 91.588 124.009 91.88 124.009 92.192ZM137.733 91.376C137.733 90.888 137.605 90.524 137.349 90.284C137.093 90.044 136.721 89.924 136.233 89.924C135.897 89.924 135.585 89.984 135.297 90.104C135.009 90.224 134.765 90.384 134.565 90.584L134.109 90.044C134.341 89.812 134.645 89.62 135.021 89.468C135.405 89.316 135.837 89.24 136.317 89.24C136.621 89.24 136.905 89.284 137.169 89.372C137.433 89.452 137.665 89.576 137.865 89.744C138.065 89.912 138.221 90.124 138.333 90.38C138.445 90.636 138.501 90.936 138.501 91.28V93.74C138.501 93.956 138.509 94.18 138.525 94.412C138.541 94.644 138.565 94.84 138.597 95H137.865C137.841 94.864 137.821 94.716 137.805 94.556C137.789 94.396 137.781 94.24 137.781 94.088H137.757C137.501 94.464 137.209 94.736 136.881 94.904C136.561 95.064 136.173 95.144 135.717 95.144C135.501 95.144 135.277 95.112 135.045 95.048C134.821 94.992 134.613 94.896 134.421 94.76C134.237 94.624 134.081 94.448 133.953 94.232C133.833 94.016 133.773 93.752 133.773 93.44C133.773 93.008 133.881 92.668 134.097 92.42C134.321 92.164 134.617 91.976 134.985 91.856C135.353 91.728 135.773 91.648 136.245 91.616C136.725 91.576 137.221 91.556 137.733 91.556V91.376ZM137.493 92.192C137.157 92.192 136.817 92.208 136.473 92.24C136.137 92.264 135.829 92.32 135.549 92.408C135.277 92.488 135.053 92.608 134.877 92.768C134.701 92.928 134.613 93.14 134.613 93.404C134.613 93.604 134.649 93.772 134.721 93.908C134.801 94.044 134.905 94.156 135.033 94.244C135.161 94.324 135.301 94.384 135.453 94.424C135.613 94.456 135.773 94.472 135.933 94.472C136.221 94.472 136.477 94.424 136.701 94.328C136.925 94.224 137.113 94.088 137.265 93.92C137.417 93.744 137.533 93.544 137.613 93.32C137.693 93.096 137.733 92.86 137.733 92.612V92.192H137.493ZM144.683 95C144.667 94.848 144.655 94.68 144.647 94.496C144.639 94.312 144.635 94.16 144.635 94.04H144.611C144.451 94.368 144.191 94.636 143.831 94.844C143.471 95.044 143.091 95.144 142.691 95.144C141.979 95.144 141.443 94.932 141.083 94.508C140.731 94.084 140.555 93.524 140.555 92.828V89.384H141.371V92.492C141.371 92.788 141.395 93.056 141.443 93.296C141.491 93.536 141.571 93.744 141.683 93.92C141.803 94.088 141.959 94.22 142.151 94.316C142.351 94.412 142.599 94.46 142.895 94.46C143.111 94.46 143.319 94.416 143.519 94.328C143.727 94.24 143.911 94.108 144.071 93.932C144.231 93.748 144.359 93.52 144.455 93.248C144.551 92.968 144.599 92.64 144.599 92.264V89.384H145.415V93.764C145.415 93.916 145.419 94.112 145.427 94.352C145.435 94.592 145.447 94.808 145.463 95H144.683ZM152.196 94.052C151.956 94.412 151.644 94.684 151.26 94.868C150.876 95.052 150.48 95.144 150.072 95.144C149.632 95.144 149.232 95.068 148.872 94.916C148.52 94.764 148.216 94.556 147.96 94.292C147.712 94.028 147.516 93.716 147.372 93.356C147.236 92.996 147.168 92.608 147.168 92.192C147.168 91.776 147.236 91.388 147.372 91.028C147.516 90.668 147.712 90.356 147.96 90.092C148.216 89.828 148.52 89.62 148.872 89.468C149.232 89.316 149.632 89.24 150.072 89.24C150.48 89.24 150.876 89.336 151.26 89.528C151.644 89.712 151.956 89.988 152.196 90.356H152.22V85.928H153.036V95H152.22V94.052H152.196ZM148.032 92.192C148.032 92.504 148.08 92.8 148.176 93.08C148.272 93.352 148.408 93.592 148.584 93.8C148.768 94 148.992 94.16 149.256 94.28C149.52 94.392 149.82 94.448 150.156 94.448C150.468 94.448 150.756 94.392 151.02 94.28C151.284 94.16 151.512 94 151.704 93.8C151.896 93.6 152.044 93.364 152.148 93.092C152.26 92.812 152.316 92.512 152.316 92.192C152.316 91.872 152.26 91.576 152.148 91.304C152.044 91.024 151.896 90.784 151.704 90.584C151.512 90.376 151.284 90.216 151.02 90.104C150.756 89.984 150.468 89.924 150.156 89.924C149.82 89.924 149.52 89.984 149.256 90.104C148.992 90.224 148.768 90.388 148.584 90.596C148.408 90.796 148.272 91.036 148.176 91.316C148.08 91.588 148.032 91.88 148.032 92.192ZM156.045 95H155.229V89.384H156.045V95ZM156.213 87.224C156.213 87.392 156.153 87.532 156.033 87.644C155.913 87.748 155.781 87.8 155.637 87.8C155.493 87.8 155.361 87.748 155.241 87.644C155.121 87.532 155.061 87.392 155.061 87.224C155.061 87.056 155.121 86.92 155.241 86.816C155.361 86.704 155.493 86.648 155.637 86.648C155.781 86.648 155.913 86.704 156.033 86.816C156.153 86.92 156.213 87.056 156.213 87.224ZM163.797 92.192C163.797 92.616 163.721 93.008 163.569 93.368C163.425 93.728 163.221 94.04 162.957 94.304C162.693 94.568 162.377 94.776 162.009 94.928C161.641 95.072 161.237 95.144 160.797 95.144C160.365 95.144 159.965 95.072 159.597 94.928C159.229 94.776 158.913 94.568 158.649 94.304C158.385 94.04 158.177 93.728 158.025 93.368C157.881 93.008 157.809 92.616 157.809 92.192C157.809 91.768 157.881 91.376 158.025 91.016C158.177 90.656 158.385 90.344 158.649 90.08C158.913 89.816 159.229 89.612 159.597 89.468C159.965 89.316 160.365 89.24 160.797 89.24C161.237 89.24 161.641 89.316 162.009 89.468C162.377 89.612 162.693 89.816 162.957 90.08C163.221 90.344 163.425 90.656 163.569 91.016C163.721 91.376 163.797 91.768 163.797 92.192ZM162.933 92.192C162.933 91.88 162.881 91.588 162.777 91.316C162.681 91.036 162.541 90.796 162.357 90.596C162.173 90.388 161.949 90.224 161.685 90.104C161.421 89.984 161.125 89.924 160.797 89.924C160.469 89.924 160.173 89.984 159.909 90.104C159.653 90.224 159.433 90.388 159.249 90.596C159.065 90.796 158.921 91.036 158.817 91.316C158.721 91.588 158.673 91.88 158.673 92.192C158.673 92.504 158.721 92.8 158.817 93.08C158.921 93.352 159.065 93.592 159.249 93.8C159.433 94 159.653 94.16 159.909 94.28C160.173 94.392 160.469 94.448 160.797 94.448C161.125 94.448 161.421 94.392 161.685 94.28C161.949 94.16 162.173 94 162.357 93.8C162.541 93.592 162.681 93.352 162.777 93.08C162.881 92.8 162.933 92.504 162.933 92.192ZM167.737 92.432H165.049V91.748H167.737V92.432ZM171.928 90.068H170.344V93.344C170.344 93.552 170.364 93.724 170.404 93.86C170.444 93.996 170.5 94.104 170.572 94.184C170.652 94.256 170.744 94.308 170.848 94.34C170.952 94.364 171.064 94.376 171.184 94.376C171.296 94.376 171.412 94.36 171.532 94.328C171.66 94.296 171.78 94.252 171.892 94.196L171.928 94.904C171.784 94.96 171.632 95 171.472 95.024C171.32 95.056 171.152 95.072 170.968 95.072C170.816 95.072 170.656 95.052 170.488 95.012C170.32 94.972 170.164 94.896 170.02 94.784C169.876 94.672 169.756 94.52 169.66 94.328C169.572 94.136 169.528 93.884 169.528 93.572V90.068H168.364V89.384H169.528V87.8H170.344V89.384H171.928V90.068ZM178.785 92.192C178.785 92.616 178.709 93.008 178.557 93.368C178.413 93.728 178.209 94.04 177.945 94.304C177.681 94.568 177.365 94.776 176.997 94.928C176.629 95.072 176.225 95.144 175.785 95.144C175.353 95.144 174.953 95.072 174.585 94.928C174.217 94.776 173.901 94.568 173.637 94.304C173.373 94.04 173.165 93.728 173.013 93.368C172.869 93.008 172.797 92.616 172.797 92.192C172.797 91.768 172.869 91.376 173.013 91.016C173.165 90.656 173.373 90.344 173.637 90.08C173.901 89.816 174.217 89.612 174.585 89.468C174.953 89.316 175.353 89.24 175.785 89.24C176.225 89.24 176.629 89.316 176.997 89.468C177.365 89.612 177.681 89.816 177.945 90.08C178.209 90.344 178.413 90.656 178.557 91.016C178.709 91.376 178.785 91.768 178.785 92.192ZM177.921 92.192C177.921 91.88 177.869 91.588 177.765 91.316C177.669 91.036 177.529 90.796 177.345 90.596C177.161 90.388 176.937 90.224 176.673 90.104C176.409 89.984 176.113 89.924 175.785 89.924C175.457 89.924 175.161 89.984 174.897 90.104C174.641 90.224 174.421 90.388 174.237 90.596C174.053 90.796 173.909 91.036 173.805 91.316C173.709 91.588 173.661 91.88 173.661 92.192C173.661 92.504 173.709 92.8 173.805 93.08C173.909 93.352 174.053 93.592 174.237 93.8C174.421 94 174.641 94.16 174.897 94.28C175.161 94.392 175.457 94.448 175.785 94.448C176.113 94.448 176.409 94.392 176.673 94.28C176.937 94.16 177.161 94 177.345 93.8C177.529 93.592 177.669 93.352 177.765 93.08C177.869 92.8 177.921 92.504 177.921 92.192ZM184.621 95C184.605 94.848 184.593 94.68 184.585 94.496C184.577 94.312 184.573 94.16 184.573 94.04H184.549C184.389 94.368 184.129 94.636 183.769 94.844C183.409 95.044 183.029 95.144 182.629 95.144C181.917 95.144 181.381 94.932 181.021 94.508C180.669 94.084 180.493 93.524 180.493 92.828V89.384H181.309V92.492C181.309 92.788 181.333 93.056 181.381 93.296C181.429 93.536 181.509 93.744 181.621 93.92C181.741 94.088 181.897 94.22 182.089 94.316C182.289 94.412 182.537 94.46 182.833 94.46C183.049 94.46 183.257 94.416 183.457 94.328C183.665 94.24 183.849 94.108 184.009 93.932C184.169 93.748 184.297 93.52 184.393 93.248C184.489 92.968 184.537 92.64 184.537 92.264V89.384H185.353V93.764C185.353 93.916 185.357 94.112 185.365 94.352C185.373 94.592 185.385 94.808 185.401 95H184.621ZM187.514 90.62C187.514 90.468 187.51 90.272 187.502 90.032C187.494 89.792 187.482 89.576 187.466 89.384H188.246C188.262 89.536 188.274 89.704 188.282 89.888C188.29 90.072 188.294 90.224 188.294 90.344H188.318C188.478 90.016 188.718 89.752 189.038 89.552C189.358 89.344 189.718 89.24 190.118 89.24C190.222 89.24 190.314 89.244 190.394 89.252C190.482 89.26 190.57 89.276 190.658 89.3L190.55 90.068C190.502 90.052 190.422 90.036 190.31 90.02C190.198 90.004 190.086 89.996 189.974 89.996C189.758 89.996 189.55 90.036 189.35 90.116C189.15 90.196 188.974 90.324 188.822 90.5C188.678 90.668 188.558 90.888 188.462 91.16C188.374 91.424 188.33 91.744 188.33 92.12V95H187.514V90.62ZM194.826 90.716C194.706 90.484 194.522 90.296 194.274 90.152C194.034 90 193.758 89.924 193.446 89.924C193.302 89.924 193.158 89.94 193.014 89.972C192.87 90.004 192.742 90.056 192.63 90.128C192.518 90.2 192.426 90.292 192.354 90.404C192.29 90.516 192.258 90.648 192.258 90.8C192.258 91.064 192.366 91.268 192.582 91.412C192.798 91.548 193.138 91.664 193.602 91.76C194.266 91.896 194.754 92.096 195.066 92.36C195.386 92.616 195.546 92.964 195.546 93.404C195.546 93.724 195.482 93.996 195.354 94.22C195.234 94.436 195.074 94.616 194.874 94.76C194.674 94.896 194.446 94.992 194.19 95.048C193.942 95.112 193.69 95.144 193.434 95.144C193.01 95.144 192.598 95.056 192.198 94.88C191.798 94.704 191.47 94.428 191.214 94.052L191.862 93.572C192.006 93.82 192.218 94.028 192.498 94.196C192.778 94.364 193.086 94.448 193.422 94.448C193.598 94.448 193.766 94.432 193.926 94.4C194.086 94.368 194.226 94.312 194.346 94.232C194.466 94.152 194.562 94.052 194.634 93.932C194.706 93.804 194.742 93.648 194.742 93.464C194.742 93.168 194.598 92.948 194.31 92.804C194.03 92.652 193.622 92.512 193.086 92.384C192.918 92.344 192.738 92.296 192.546 92.24C192.362 92.176 192.19 92.088 192.03 91.976C191.87 91.856 191.738 91.708 191.634 91.532C191.53 91.356 191.478 91.136 191.478 90.872C191.478 90.584 191.534 90.34 191.646 90.14C191.758 89.932 191.906 89.764 192.09 89.636C192.282 89.5 192.498 89.4 192.738 89.336C192.978 89.272 193.226 89.24 193.482 89.24C193.874 89.24 194.254 89.328 194.622 89.504C194.99 89.68 195.266 89.928 195.45 90.248L194.826 90.716ZM198.298 94.424C198.298 94.592 198.238 94.744 198.118 94.88C197.998 95.008 197.842 95.072 197.65 95.072C197.458 95.072 197.302 95.008 197.182 94.88C197.062 94.744 197.002 94.592 197.002 94.424C197.002 94.256 197.062 94.108 197.182 93.98C197.302 93.844 197.458 93.776 197.65 93.776C197.842 93.776 197.998 93.844 198.118 93.98C198.238 94.108 198.298 94.256 198.298 94.424Z" fill="#7686AF"/>
</svg>